<?xml version="1.0" encoding="utf-8"?>
<!-- Generator: Adobe Illustrator 24.0.0, SVG Export Plug-In . SVG Version: 6.00 Build 0)  -->
<svg version="1.1" id="Capa_1" xmlns="http://www.w3.org/2000/svg" xmlns:xlink="http://www.w3.org/1999/xlink" x="0px" y="0px"
	 viewBox="0 0 35.6 61.9" style="enable-background:new 0 0 35.6 61.9;" xml:space="preserve">
<style type="text/css">
	.st0{fill:none;stroke:#FFFFFF;stroke-miterlimit:10;}
	.st1{fill:#FFFFFF;}
</style>
<path class="st1" d="M17.8,24.7C12.5,19.4,7.2,14.1,1.9,8.9c-2.2-2.2-2.4-5.2-0.3-7.2c2-2,4.9-1.8,7.1,0.4
	c8.1,8.1,16.1,16.1,24.2,24.2c1,1,1.9,2.3,2.8,3.5c0,0.8,0,1.7,0,2.5c-1,1.2-1.9,2.6-3,3.7c-8,8-15.9,16-23.9,24
	c-2.2,2.2-5.1,2.4-7.1,0.4c-2-2-1.9-5,0.3-7.2c5.4-5.4,10.8-10.8,16.2-16.2l6-6L17.8,24.7z"/>
</svg>
