<?xml version="1.0" encoding="utf-8"?>
<!-- Generator: Adobe Illustrator 24.0.0, SVG Export Plug-In . SVG Version: 6.00 Build 0)  -->
<svg version="1.1" id="Capa_1" xmlns="http://www.w3.org/2000/svg" xmlns:xlink="http://www.w3.org/1999/xlink" x="0px" y="0px"
	 viewBox="0 0 298.1 66.2" style="enable-background:new 0 0 298.1 66.2;" xml:space="preserve">
<style type="text/css">
	.st0{fill:url(#SVGID_1_);}
	.st1{fill:url(#SVGID_2_);}
	.st2{fill:url(#SVGID_3_);}
	.st3{fill:url(#SVGID_4_);}
	.st4{fill:url(#SVGID_5_);}
	.st5{fill:url(#SVGID_6_);}
	.st6{fill:url(#SVGID_7_);}
	.st7{fill:none;stroke:#FFFFFF;stroke-linecap:round;stroke-linejoin:round;stroke-miterlimit:10;}
	.st8{fill:url(#SVGID_8_);}
	.st9{fill:url(#SVGID_9_);}
</style>
<g>
	
		<linearGradient id="SVGID_1_" gradientUnits="userSpaceOnUse" x1="84.952" y1="740.9868" x2="84.952" y2="821.0475" gradientTransform="matrix(1 0 0 1 0 -732)">
		<stop  offset="0" style="stop-color:#FFFFFF"/>
		<stop  offset="1" style="stop-color:#FFFFFF;stop-opacity:0"/>
	</linearGradient>
	<path class="st0" d="M90.9,53.4c-1.3,1.3-2.8,2.3-4.5,3.1c-1.6,0.8-3.5,1.2-5.6,1.2c-1.7,0-3.3-0.3-4.8-0.8
		c-1.4-0.5-2.7-1.3-3.7-2.2c-1-0.9-1.9-2-2.4-3.3c-0.6-1.3-0.9-2.6-0.9-4c0-1.5,0.2-2.8,0.7-4c0.4-1.2,1-2.2,1.8-3
		c0.7-0.9,1.6-1.6,2.6-2.2c1-0.6,2-1,3.1-1.4c1.1-0.4,2.2-0.6,3.3-0.8c1.1-0.1,2.2-0.2,3.2-0.2c1.6,0,3,0.1,4.1,0.2
		c1.1,0.1,2.1,0.2,3,0.4v-2.9c0-1.3-0.2-2.3-0.5-3.3c-0.4-0.9-0.9-1.7-1.5-2.3c-0.7-0.6-1.5-1.1-2.4-1.4c-0.9-0.3-2-0.4-3.1-0.4
		c-1.1,0-2.1,0.1-3.1,0.2c-1,0.1-1.9,0.3-2.8,0.6c-0.9,0.2-1.6,0.5-2.4,0.8l0,0c-1,0.4-2.3,0-2.8-1l-0.3-0.7c-0.5-1-0.1-2.2,0.9-2.7
		c0.3-0.2,0.7-0.4,1.1-0.5c1-0.5,2.1-0.9,3.2-1.2c1.1-0.3,2.2-0.6,3.4-0.8c1.2-0.2,2.3-0.3,3.4-0.3c2.1,0,3.9,0.2,5.4,0.7
		c1.6,0.6,3,1.2,4.2,2.3c1.1,1,2,2.3,2.6,3.9c0.6,1.6,0.9,3.5,0.9,5.7v17.6h1c1.6,0,2.9,1.3,2.9,2.9l0,0c0,1.6-1.3,2.9-2.9,2.9h-7.2
		V53.4z M82.3,52.4c0.8,0,1.7-0.1,2.5-0.3c0.8-0.2,1.6-0.5,2.4-0.8c0.8-0.4,1.4-0.8,2.1-1.2c0.6-0.5,1.2-1,1.6-1.5v-7.9h-7.4
		c-1.2,0-2.4,0.1-3.4,0.4c-1,0.3-1.9,0.7-2.6,1.2c-0.7,0.5-1.3,1.2-1.7,2c-0.4,0.8-0.6,1.7-0.6,2.7c0,0.9,0.2,1.8,0.5,2.4
		c0.3,0.7,0.8,1.3,1.5,1.7c0.6,0.5,1.4,0.8,2.2,1.1C80.4,52.3,81.3,52.4,82.3,52.4z"/>
	
		<linearGradient id="SVGID_2_" gradientUnits="userSpaceOnUse" x1="125.4901" y1="740.9868" x2="125.4901" y2="821.0475" gradientTransform="matrix(1 0 0 1 0 -732)">
		<stop  offset="0" style="stop-color:#FFFFFF"/>
		<stop  offset="1" style="stop-color:#FFFFFF;stop-opacity:0"/>
	</linearGradient>
	<path class="st1" d="M135.3,30.8c-1-1.7-2.2-3-3.6-3.8c-1.5-0.8-3.2-1.2-5.1-1.2c-1.5,0-2.9,0.3-4.2,0.9c-1.3,0.6-2.4,1.5-3.4,2.6
		c-1,1.1-1.7,2.5-2.3,4.2c-0.6,1.6-0.8,3.5-0.8,5.4c0,1.9,0.3,3.8,0.8,5.3c0.6,1.6,1.3,3,2.3,4.1c1,1.1,2.1,2,3.4,2.6
		s2.7,0.9,4.2,0.9c2.2,0,4.1-0.5,5.7-1.6c1-0.7,1.9-1.5,2.6-2.5c0.8-1.2,2.4-1.6,3.7-0.9l0,0c1.6,0.8,2.2,2.9,1.1,4.4
		c-0.2,0.3-0.5,0.7-0.8,1c-1,1.2-2.1,2.2-3.4,3c-1.3,0.8-2.7,1.5-4.2,1.9c-1.5,0.4-3.1,0.7-4.8,0.7c-2.5,0-4.7-0.5-6.8-1.4
		c-2.1-0.9-3.9-2.2-5.3-3.9c-1.5-1.7-2.7-3.7-3.5-6s-1.3-4.8-1.3-7.6c0-2.7,0.4-5.3,1.3-7.6s2.1-4.2,3.7-5.9
		c1.6-1.7,3.4-2.9,5.3-3.9c2.1-0.9,4.2-1.4,6.6-1.4c2.2,0,4.4,0.4,6.3,1.2c2,0.8,3.7,2,5.3,3.5h0.6c1.6,0,2.9,1.3,2.9,2.9l0,0
		c0,1.6-1.3,2.9-2.9,2.9C138.8,30.8,135.3,30.8,135.3,30.8z"/>
	
		<linearGradient id="SVGID_3_" gradientUnits="userSpaceOnUse" x1="168.5186" y1="739.0024" x2="168.5186" y2="822.4009" gradientTransform="matrix(1 0 0 1 0 -732)">
		<stop  offset="0" style="stop-color:#FFFFFF"/>
		<stop  offset="1" style="stop-color:#FFFFFF;stop-opacity:0"/>
	</linearGradient>
	<path class="st2" d="M152,1.5h9.5v5.9h-0.1V36h6.2l8.4-8.7l0,0c-1.2,0-2.1-0.9-2.1-2.1v-1.6c0-1.2,0.9-2.1,2.1-2.1h8.4
		c1.6,0,2.9,1.3,2.9,2.9l0,0c0,1.6-1.3,2.9-2.9,2.9h-1.5l-10.8,11.1l11.8,12.5h1.3c1.6,0,2.9,1.3,2.9,2.9l0,0c0,1.6-1.3,2.9-2.9,2.9
		h-4.6l-14.5-15.8h-4.7v10l0,0c1.6,0,2.9,1.3,2.9,2.9l0,0c0,1.6-1.3,2.9-2.9,2.9h-9.3c-1.6,0-2.9-1.3-2.9-2.9l0,0
		c0-1.6,1.3-2.9,2.9-2.9h2.9V7.4h-3c-1.6,0-2.9-1.3-2.9-2.9l0,0C149.1,2.8,150.4,1.5,152,1.5z"/>
	
		<linearGradient id="SVGID_4_" gradientUnits="userSpaceOnUse" x1="42.7074" y1="739.0016" x2="42.7074" y2="822.3886" gradientTransform="matrix(1 0 0 1 0 -732)">
		<stop  offset="0" style="stop-color:#FFFFFF"/>
		<stop  offset="1" style="stop-color:#FFFFFF;stop-opacity:0"/>
	</linearGradient>
	<path class="st3" d="M26,1.5h8.3v21.7h0.2c0.6-0.6,1.4-1.2,2.2-1.8c0.8-0.6,1.7-1,2.6-1.5c0.9-0.4,1.9-0.7,2.8-1
		c1-0.2,2-0.3,3.1-0.3c1.9,0,3.6,0.3,5.1,0.8c1.5,0.5,2.8,1.3,3.9,2.4c1.1,1.1,1.9,2.4,2.5,4.1c0.6,1.7,0.9,3.7,0.9,5.9V51h2.4
		c1.6,0,2.9,1.3,2.9,2.9l0,0c0,1.6-1.3,2.9-2.9,2.9h-11c-1.6,0-2.9-1.3-2.9-2.9l0,0c0-1.6,1.3-2.9,2.9-2.9h1.9V32.6
		c0-2.7-0.7-4.8-2.1-6.2c-1.4-1.4-3.4-2.1-5.9-2.1c-1.5,0-2.9,0.3-4.4,1c-1.5,0.7-2.9,1.6-4.2,2.6v23h2.2c1.6,0,2.9,1.3,2.9,2.9l0,0
		c0,1.6-1.3,2.9-2.9,2.9h-11c-1.6,0-2.9-1.3-2.9-2.9l0,0c0-1.6,1.3-2.9,2.9-2.9h2.4V7.4H26c-1.6,0-2.9-1.3-2.9-2.9l0,0
		C23,2.8,24.3,1.5,26,1.5z"/>
	<g>
		
			<linearGradient id="SVGID_5_" gradientUnits="userSpaceOnUse" x1="202.5079" y1="69.1383" x2="202.5079" y2="-44.7637" gradientTransform="matrix(1 0 0 -1 0 68)">
			<stop  offset="0" style="stop-color:#FFFFFF"/>
			<stop  offset="1" style="stop-color:#FFFFFF;stop-opacity:0"/>
		</linearGradient>
		<path class="st4" d="M198.2,53.9c0-0.6,0.1-1.1,0.4-1.7c0.3-0.6,0.6-1,0.9-1.4s0.8-0.7,1.4-0.9c0.6-0.3,1.1-0.4,1.7-0.4
			c0.6,0,1.1,0.1,1.7,0.4c0.6,0.3,1,0.6,1.4,0.9s0.7,0.8,0.9,1.4c0.3,0.6,0.4,1.1,0.4,1.7c0,0.6-0.1,1.2-0.4,1.8
			c-0.3,0.6-0.6,1-0.9,1.4c-0.4,0.4-0.8,0.7-1.4,1c-0.6,0.3-1.1,0.4-1.7,0.4c-0.6,0-1.2-0.1-1.7-0.4c-0.6-0.3-1-0.6-1.4-1
			c-0.4-0.4-0.7-0.9-0.9-1.4C198.3,55,198.2,54.5,198.2,53.9z"/>
		
			<linearGradient id="SVGID_6_" gradientUnits="userSpaceOnUse" x1="231.1475" y1="69.1383" x2="231.1475" y2="-44.7637" gradientTransform="matrix(1 0 0 -1 0 68)">
			<stop  offset="0" style="stop-color:#FFFFFF"/>
			<stop  offset="1" style="stop-color:#FFFFFF;stop-opacity:0"/>
		</linearGradient>
		<path class="st5" d="M236.7,54.7c-1.3,1.2-2.8,2.2-4.3,3c-1.6,0.7-3.4,1.2-5.4,1.2c-1.7,0-3.2-0.3-4.7-0.8
			c-1.4-0.6-2.7-1.3-3.7-2.2c-1-0.9-1.8-2-2.4-3.2c-0.6-1.2-0.8-2.5-0.8-3.9c0-1.5,0.2-2.8,0.6-3.9c0.5-1.1,1-2.1,1.8-3
			c0.7-0.8,1.6-1.6,2.6-2.1c1-0.6,2-1,3-1.4c1-0.4,2.1-0.6,3.2-0.7s2.1-0.2,3.1-0.2c1.6,0,3,0.1,4.1,0.2c1.1,0.1,2.1,0.3,3,0.5v-2.9
			c0-1.2-0.2-2.3-0.6-3.2c-0.4-0.9-0.8-1.7-1.5-2.2c-0.6-0.6-1.4-1-2.3-1.3c-0.9-0.3-1.9-0.5-3-0.5c-1,0-2,0.1-3,0.2
			c-0.9,0.2-1.8,0.4-2.7,0.6c-0.8,0.3-1.6,0.5-2.3,0.8l0,0c-1,0.5-2.2,0-2.7-1l-0.3-0.6c-0.5-1-0.1-2.1,0.8-2.7
			c0.4-0.2,0.7-0.4,1.1-0.6c1-0.5,2-0.8,3.1-1.2c1.1-0.4,2.2-0.6,3.3-0.7c1.1-0.2,2.2-0.3,3.3-0.3c2,0,3.8,0.3,5.4,0.7
			c1.6,0.5,3,1.2,4.1,2.2c1.1,1,1.9,2.3,2.6,3.9c0.6,1.6,0.9,3.4,0.9,5.5v17.3h1c1.6,0,2.9,1.3,2.9,2.9l0,0c0,1.6-1.3,2.9-2.9,2.9
			h-4.9c-1.3,0-2.3-1-2.3-2.3v-1H236.7z M228.2,53.6c0.8,0,1.7-0.1,2.5-0.3c0.8-0.2,1.6-0.5,2.3-0.8s1.4-0.7,2-1.2
			c0.6-0.5,1.1-0.9,1.6-1.4v-7.8h-7.2c-1.2,0-2.3,0.1-3.3,0.4c-1,0.3-1.8,0.6-2.6,1.2s-1.3,1.1-1.7,1.9c-0.4,0.7-0.6,1.7-0.6,2.6
			s0.2,1.8,0.5,2.4c0.4,0.6,0.8,1.3,1.4,1.8c0.6,0.5,1.4,0.8,2.2,1C226.3,53.5,227.2,53.6,228.2,53.6z"/>
		
			<linearGradient id="SVGID_7_" gradientUnits="userSpaceOnUse" x1="264.5811" y1="69.1383" x2="264.5811" y2="-44.7637" gradientTransform="matrix(1 0 0 -1 0 68)">
			<stop  offset="0" style="stop-color:#FFFFFF"/>
			<stop  offset="1" style="stop-color:#FFFFFF;stop-opacity:0"/>
		</linearGradient>
		<path class="st6" d="M259.1,23.2h5.3c1.8,0,3.1,1.4,3.1,3.1v25.8h2.3c1.6,0,2.9,1.3,2.9,2.9l0,0c0,1.6-1.3,2.9-2.9,2.9h-10.7
			c-1.6,0-2.9-1.3-2.9-2.9l0,0c0-1.6,1.3-2.9,2.9-2.9h2.1V29h-2.1c-1.6,0-2.9-1.3-2.9-2.9l0,0C256.3,24.5,257.6,23.2,259.1,23.2z
			 M260.2,10.9c0-0.6,0.1-1.1,0.4-1.7c0.3-0.6,0.6-1,0.9-1.4c0.4-0.4,0.8-0.7,1.4-0.9c0.6-0.3,1.1-0.4,1.8-0.4
			c0.6,0,1.1,0.1,1.7,0.4c0.6,0.3,1,0.6,1.4,0.9c0.4,0.4,0.7,0.8,0.9,1.4c0.3,0.6,0.4,1.1,0.4,1.7c0,0.6-0.1,1.2-0.4,1.8
			c-0.3,0.6-0.6,1-0.9,1.4c-0.4,0.4-0.8,0.7-1.4,1c-0.6,0.3-1.1,0.4-1.7,0.4c-0.6,0-1.2-0.1-1.8-0.4s-1-0.6-1.4-1
			c-0.4-0.4-0.7-0.9-0.9-1.4C260.2,12.1,260.2,11.6,260.2,10.9z"/>
	</g>
	<path class="st7" d="M26,1.5h8.3v21.7h0.2c0.6-0.6,1.4-1.2,2.2-1.8c0.8-0.6,1.7-1,2.6-1.5c0.9-0.4,1.9-0.7,2.8-1
		c1-0.2,2-0.3,3.1-0.3c1.9,0,3.6,0.3,5.1,0.8c1.5,0.5,2.8,1.3,3.9,2.4c1.1,1.1,1.9,2.4,2.5,4.1c0.6,1.7,0.9,3.7,0.9,5.9V51h2.4
		c1.6,0,2.9,1.3,2.9,2.9l0,0c0,1.6-1.3,2.9-2.9,2.9h-11c-1.6,0-2.9-1.3-2.9-2.9l0,0c0-1.6,1.3-2.9,2.9-2.9h1.9V32.6
		c0-2.7-0.7-4.8-2.1-6.2c-1.4-1.4-3.4-2.1-5.9-2.1c-1.5,0-2.9,0.3-4.4,1c-1.5,0.7-2.9,1.6-4.2,2.6v23h2.2c1.6,0,2.9,1.3,2.9,2.9l0,0
		c0,1.6-1.3,2.9-2.9,2.9h-11c-1.6,0-2.9-1.3-2.9-2.9l0,0c0-1.6,1.3-2.9,2.9-2.9h2.4V7.4H26c-1.6,0-2.9-1.3-2.9-2.9l0,0
		C23,2.8,24.3,1.5,26,1.5z"/>
	<path class="st7" d="M90.9,53.4c-1.3,1.3-2.8,2.3-4.5,3.1c-1.6,0.8-3.5,1.2-5.6,1.2c-1.7,0-3.3-0.3-4.8-0.8
		c-1.4-0.5-2.7-1.3-3.7-2.2c-1-0.9-1.9-2-2.4-3.3c-0.6-1.3-0.9-2.6-0.9-4c0-1.5,0.2-2.8,0.7-4c0.4-1.2,1-2.2,1.8-3
		c0.7-0.9,1.6-1.6,2.6-2.2c1-0.6,2-1,3.1-1.4c1.1-0.4,2.2-0.6,3.3-0.8c1.1-0.1,2.2-0.2,3.2-0.2c1.6,0,3,0.1,4.1,0.2
		c1.1,0.1,2.1,0.2,3,0.4v-2.9c0-1.3-0.2-2.3-0.5-3.3c-0.4-0.9-0.9-1.7-1.5-2.3c-0.7-0.6-1.5-1.1-2.4-1.4c-0.9-0.3-2-0.4-3.1-0.4
		c-1.1,0-2.1,0.1-3.1,0.2c-1,0.1-1.9,0.3-2.8,0.6c-0.9,0.2-1.6,0.5-2.4,0.8l0,0c-1,0.4-2.3,0-2.8-1l-0.3-0.7c-0.5-1-0.1-2.2,0.9-2.7
		c0.3-0.2,0.7-0.4,1.1-0.5c1-0.5,2.1-0.9,3.2-1.2c1.1-0.3,2.2-0.6,3.4-0.8c1.2-0.2,2.3-0.3,3.4-0.3c2.1,0,3.9,0.2,5.4,0.7
		c1.6,0.6,3,1.2,4.2,2.3c1.1,1,2,2.3,2.6,3.9c0.6,1.6,0.9,3.5,0.9,5.7v17.6h1c1.6,0,2.9,1.3,2.9,2.9l0,0c0,1.6-1.3,2.9-2.9,2.9h-7.2
		V53.4z M82.3,52.4c0.8,0,1.7-0.1,2.5-0.3c0.8-0.2,1.6-0.5,2.4-0.8c0.8-0.4,1.4-0.8,2.1-1.2c0.6-0.5,1.2-1,1.6-1.5v-7.9h-7.4
		c-1.2,0-2.4,0.1-3.4,0.4c-1,0.3-1.9,0.7-2.6,1.2c-0.7,0.5-1.3,1.2-1.7,2c-0.4,0.8-0.6,1.7-0.6,2.7c0,0.9,0.2,1.8,0.5,2.4
		c0.3,0.7,0.8,1.3,1.5,1.7c0.6,0.5,1.4,0.8,2.2,1.1C80.4,52.3,81.3,52.4,82.3,52.4z"/>
	<path class="st7" d="M135.3,30.8c-1-1.7-2.2-3-3.6-3.8c-1.5-0.8-3.2-1.2-5.1-1.2c-1.5,0-2.9,0.3-4.2,0.9c-1.3,0.6-2.4,1.5-3.4,2.6
		c-1,1.1-1.7,2.5-2.3,4.2c-0.6,1.6-0.8,3.5-0.8,5.4c0,1.9,0.3,3.8,0.8,5.3c0.6,1.6,1.3,3,2.3,4.1c1,1.1,2.1,2,3.4,2.6
		s2.7,0.9,4.2,0.9c2.2,0,4.1-0.5,5.7-1.6c1-0.7,1.9-1.5,2.6-2.5c0.8-1.2,2.4-1.6,3.7-0.9l0,0c1.6,0.8,2.2,2.9,1.1,4.4
		c-0.2,0.3-0.5,0.7-0.8,1c-1,1.2-2.1,2.2-3.4,3c-1.3,0.8-2.7,1.5-4.2,1.9c-1.5,0.4-3.1,0.7-4.8,0.7c-2.5,0-4.7-0.5-6.8-1.4
		c-2.1-0.9-3.9-2.2-5.3-3.9c-1.5-1.7-2.7-3.7-3.5-6s-1.3-4.8-1.3-7.6c0-2.7,0.4-5.3,1.3-7.6s2.1-4.2,3.7-5.9
		c1.6-1.7,3.4-2.9,5.3-3.9c2.1-0.9,4.2-1.4,6.6-1.4c2.2,0,4.4,0.4,6.3,1.2c2,0.8,3.7,2,5.3,3.5h0.6c1.6,0,2.9,1.3,2.9,2.9l0,0
		c0,1.6-1.3,2.9-2.9,2.9C138.8,30.8,135.3,30.8,135.3,30.8z"/>
	<path class="st7" d="M152,1.5h9.5v5.9h-0.1V36h6.2l8.4-8.7l0,0c-1.2,0-2.1-0.9-2.1-2.1v-1.6c0-1.2,0.9-2.1,2.1-2.1h8.4
		c1.6,0,2.9,1.3,2.9,2.9l0,0c0,1.6-1.3,2.9-2.9,2.9h-1.5l-10.8,11.1l11.8,12.5h1.3c1.6,0,2.9,1.3,2.9,2.9l0,0c0,1.6-1.3,2.9-2.9,2.9
		h-4.6l-14.5-15.8h-4.7v10l0,0c1.6,0,2.9,1.3,2.9,2.9l0,0c0,1.6-1.3,2.9-2.9,2.9h-9.3c-1.6,0-2.9-1.3-2.9-2.9l0,0
		c0-1.6,1.3-2.9,2.9-2.9h2.9V7.4h-3c-1.6,0-2.9-1.3-2.9-2.9l0,0C149.1,2.8,150.4,1.5,152,1.5z"/>
	<g>
		<path class="st7" d="M198.2,53.9c0-0.6,0.1-1.1,0.4-1.7c0.3-0.6,0.6-1,0.9-1.4s0.8-0.7,1.4-0.9c0.6-0.3,1.1-0.4,1.7-0.4
			c0.6,0,1.1,0.1,1.7,0.4c0.6,0.3,1,0.6,1.4,0.9s0.7,0.8,0.9,1.4c0.3,0.6,0.4,1.1,0.4,1.7c0,0.6-0.1,1.2-0.4,1.8
			c-0.3,0.6-0.6,1-0.9,1.4c-0.4,0.4-0.8,0.7-1.4,1c-0.6,0.3-1.1,0.4-1.7,0.4c-0.6,0-1.2-0.1-1.7-0.4c-0.6-0.3-1-0.6-1.4-1
			c-0.4-0.4-0.7-0.9-0.9-1.4C198.3,55.1,198.2,54.6,198.2,53.9z"/>
		<path class="st7" d="M236.7,54.7c-1.3,1.2-2.8,2.2-4.3,3c-1.6,0.7-3.4,1.2-5.4,1.2c-1.7,0-3.2-0.3-4.7-0.8
			c-1.4-0.6-2.7-1.3-3.7-2.2c-1-0.9-1.8-2-2.4-3.2c-0.6-1.2-0.8-2.5-0.8-3.9c0-1.5,0.2-2.8,0.6-3.9c0.5-1.1,1-2.1,1.8-3
			c0.7-0.8,1.6-1.6,2.6-2.1c1-0.6,2-1,3-1.4c1-0.4,2.1-0.6,3.2-0.7s2.1-0.2,3.1-0.2c1.6,0,3,0.1,4.1,0.2c1.1,0.1,2.1,0.3,3,0.5v-2.9
			c0-1.2-0.2-2.3-0.6-3.2c-0.4-0.9-0.8-1.7-1.5-2.2c-0.6-0.6-1.4-1-2.3-1.3c-0.9-0.3-1.9-0.5-3-0.5c-1,0-2,0.1-3,0.2
			c-0.9,0.2-1.8,0.4-2.7,0.6c-0.8,0.3-1.6,0.5-2.3,0.8l0,0c-1,0.5-2.2,0-2.7-1l-0.3-0.6c-0.5-1-0.1-2.1,0.8-2.7
			c0.4-0.2,0.7-0.4,1.1-0.6c1-0.5,2-0.8,3.1-1.2c1.1-0.4,2.2-0.6,3.3-0.7c1.1-0.2,2.2-0.3,3.3-0.3c2,0,3.8,0.3,5.4,0.7
			c1.6,0.5,3,1.2,4.1,2.2c1.1,1,1.9,2.3,2.6,3.9c0.6,1.6,0.9,3.4,0.9,5.5v17.3h1c1.6,0,2.9,1.3,2.9,2.9l0,0c0,1.6-1.3,2.9-2.9,2.9
			h-4.9c-1.3,0-2.3-1-2.3-2.3v-1H236.7z M228.2,53.7c0.8,0,1.7-0.1,2.5-0.3c0.8-0.2,1.6-0.5,2.3-0.8s1.4-0.7,2-1.2
			c0.6-0.5,1.1-0.9,1.6-1.4v-7.8h-7.2c-1.2,0-2.3,0.1-3.3,0.4c-1,0.3-1.8,0.6-2.6,1.2c-0.7,0.6-1.3,1.1-1.7,1.9
			c-0.4,0.7-0.6,1.7-0.6,2.6s0.2,1.8,0.5,2.4c0.4,0.6,0.8,1.3,1.4,1.8c0.6,0.5,1.4,0.8,2.2,1C226.3,53.6,227.2,53.7,228.2,53.7z"/>
		<path class="st7" d="M259.1,23.3h5.3c1.8,0,3.1,1.4,3.1,3.1v25.8h2.3c1.6,0,2.9,1.3,2.9,2.9l0,0c0,1.6-1.3,2.9-2.9,2.9h-10.7
			c-1.6,0-2.9-1.3-2.9-2.9l0,0c0-1.6,1.3-2.9,2.9-2.9h2.1V29h-2.1c-1.6,0-2.9-1.3-2.9-2.9l0,0C256.3,24.6,257.6,23.3,259.1,23.3z
			 M260.2,11c0-0.6,0.1-1.1,0.4-1.7c0.3-0.6,0.6-1,0.9-1.4c0.4-0.4,0.8-0.7,1.4-0.9c0.6-0.3,1.1-0.4,1.8-0.4c0.6,0,1.1,0.1,1.7,0.4
			c0.6,0.3,1,0.6,1.4,0.9c0.4,0.4,0.7,0.8,0.9,1.4c0.3,0.6,0.4,1.1,0.4,1.7c0,0.6-0.1,1.2-0.4,1.8c-0.3,0.6-0.6,1-0.9,1.4
			c-0.4,0.4-0.8,0.7-1.4,1c-0.6,0.3-1.1,0.4-1.7,0.4c-0.6,0-1.2-0.1-1.8-0.4s-1-0.6-1.4-1c-0.4-0.4-0.7-0.9-0.9-1.4
			C260.2,12.1,260.2,11.6,260.2,11z"/>
	</g>
	<g>
		<linearGradient id="SVGID_8_" gradientUnits="userSpaceOnUse" x1="288.1902" y1="0.4113" x2="288.1902" y2="69.2433">
			<stop  offset="0" style="stop-color:#FFFFFF"/>
			<stop  offset="1" style="stop-color:#FFFFFF;stop-opacity:0"/>
		</linearGradient>
		<path class="st8" d="M280.4,62.8L280.4,62.8c0-1.1,0.9-1.9,1.9-1.9h0.2c1.1,0,1.8-0.5,2.2-1.6c0.4-1.1,0.6-2.5,0.6-4.4V42.3
			c0-1.2,0.1-2.3,0.4-3.3c0.3-1,0.6-1.8,1.1-2.5c0.5-0.7,1-1.3,1.6-1.8c0.6-0.5,1.3-0.9,2-1.1v-0.1c-0.7-0.3-1.4-0.6-2-1.1
			c-0.6-0.5-1.1-1.1-1.6-1.8c-0.5-0.7-0.8-1.6-1.1-2.5c-0.3-1-0.4-2.1-0.4-3.3V11.8c0-1.9-0.2-3.4-0.6-4.4c-0.4-1.1-1.2-1.6-2.2-1.6
			h-0.2c-1,0-1.9-0.8-1.9-1.9v0c0-1,0.8-1.9,1.9-1.9h2.2c0.8,0,1.6,0.2,2.3,0.5c0.8,0.4,1.4,0.9,2,1.5c0.6,0.7,1.1,1.5,1.4,2.5
			c0.4,1,0.6,2.1,0.6,3.4v13.6c0,1,0.1,2,0.3,2.9c0.2,1,0.5,1.8,0.9,2.6c0.4,0.8,0.9,1.4,1.6,1.8c0.2,0.2,0.4,0.3,0.7,0.4
			c0.9,0.4,1.5,1.2,1.5,2.2v0c0,1-0.6,1.8-1.5,2.2c-0.2,0.1-0.5,0.2-0.7,0.4c-0.6,0.5-1.2,1.1-1.6,1.8c-0.4,0.8-0.7,1.6-0.9,2.6
			s-0.3,1.9-0.3,2.9v13.3c0,1.3-0.2,2.4-0.6,3.4c-0.4,1-0.9,1.8-1.4,2.5c-0.6,0.7-1.3,1.2-2,1.5c-0.8,0.4-1.5,0.5-2.3,0.5h-2.2
			C281.3,64.7,280.4,63.8,280.4,62.8z"/>
		<path class="st7" d="M280.4,62.8L280.4,62.8c0-1.1,0.9-1.9,1.9-1.9h0.2c1.1,0,1.8-0.5,2.2-1.6c0.4-1.1,0.6-2.5,0.6-4.4V42.3
			c0-1.2,0.1-2.3,0.4-3.3c0.3-1,0.6-1.8,1.1-2.5c0.5-0.7,1-1.3,1.6-1.8c0.6-0.5,1.3-0.9,2-1.1v-0.1c-0.7-0.3-1.4-0.6-2-1.1
			c-0.6-0.5-1.1-1.1-1.6-1.8c-0.5-0.7-0.8-1.6-1.1-2.5c-0.3-1-0.4-2.1-0.4-3.3V11.8c0-1.9-0.2-3.4-0.6-4.4c-0.4-1.1-1.2-1.6-2.2-1.6
			h-0.2c-1,0-1.9-0.8-1.9-1.9v0c0-1,0.8-1.9,1.9-1.9h2.2c0.8,0,1.6,0.2,2.3,0.5c0.8,0.4,1.4,0.9,2,1.5c0.6,0.7,1.1,1.5,1.4,2.5
			c0.4,1,0.6,2.1,0.6,3.4v13.6c0,1,0.1,2,0.3,2.9c0.2,1,0.5,1.8,0.9,2.6c0.4,0.8,0.9,1.4,1.6,1.8c0.2,0.2,0.4,0.3,0.7,0.4
			c0.9,0.4,1.5,1.2,1.5,2.2v0c0,1-0.6,1.8-1.5,2.2c-0.2,0.1-0.5,0.2-0.7,0.4c-0.6,0.5-1.2,1.1-1.6,1.8c-0.4,0.8-0.7,1.6-0.9,2.6
			s-0.3,1.9-0.3,2.9v13.3c0,1.3-0.2,2.4-0.6,3.4c-0.4,1-0.9,1.8-1.4,2.5c-0.6,0.7-1.3,1.2-2,1.5c-0.8,0.4-1.5,0.5-2.3,0.5h-2.2
			C281.3,64.7,280.4,63.8,280.4,62.8z"/>
	</g>
	<g>
		<linearGradient id="SVGID_9_" gradientUnits="userSpaceOnUse" x1="9.9298" y1="6.7203" x2="9.9298" y2="75.1265">
			<stop  offset="0" style="stop-color:#FFFFFF"/>
			<stop  offset="1" style="stop-color:#FFFFFF;stop-opacity:0"/>
		</linearGradient>
		<path class="st9" d="M17.7,4L17.7,4c0,1.1-0.9,1.9-1.9,1.9h-0.2c-1.1,0-1.8,0.5-2.2,1.6c-0.4,1.1-0.6,2.5-0.6,4.4v12.6
			c0,1.2-0.1,2.3-0.4,3.3c-0.3,1-0.6,1.8-1.1,2.5c-0.5,0.7-1,1.3-1.6,1.8c-0.6,0.5-1.3,0.9-2,1.1v0.1c0.7,0.3,1.4,0.6,2,1.1
			c0.6,0.5,1.1,1.1,1.6,1.8c0.5,0.7,0.8,1.6,1.1,2.5c0.3,1,0.4,2.1,0.4,3.3v12.9c0,1.9,0.2,3.4,0.6,4.4c0.4,1.1,1.2,1.6,2.2,1.6h0.2
			c1,0,1.9,0.8,1.9,1.9v0c0,1-0.8,1.9-1.9,1.9h-2.2c-0.8,0-1.6-0.2-2.3-0.5c-0.8-0.4-1.4-0.9-2-1.5c-0.6-0.7-1.1-1.5-1.4-2.5
			c-0.4-1-0.6-2.1-0.6-3.4V43.2c0-1-0.1-2-0.3-2.9S6.4,38.4,6,37.6c-0.4-0.8-0.9-1.4-1.6-1.8c-0.2-0.2-0.4-0.3-0.7-0.4
			c-0.9-0.4-1.5-1.2-1.5-2.2v0c0-1,0.6-1.8,1.5-2.2c0.2-0.1,0.5-0.2,0.7-0.4C5,30.2,5.5,29.6,6,28.8c0.4-0.8,0.7-1.6,0.9-2.6
			c0.2-1,0.3-1.9,0.3-2.9V10c0-1.3,0.2-2.4,0.6-3.4c0.4-1,0.9-1.8,1.4-2.5c0.6-0.7,1.3-1.2,2-1.5c0.8-0.4,1.5-0.5,2.3-0.5h2.2
			C16.8,2.1,17.7,2.9,17.7,4z"/>
		<path class="st7" d="M17.7,4L17.7,4c0,1.1-0.9,1.9-1.9,1.9h-0.2c-1.1,0-1.8,0.5-2.2,1.6c-0.4,1.1-0.6,2.5-0.6,4.4v12.6
			c0,1.2-0.1,2.3-0.4,3.3c-0.3,1-0.6,1.8-1.1,2.5c-0.5,0.7-1,1.3-1.6,1.8c-0.6,0.5-1.3,0.9-2,1.1v0.1c0.7,0.3,1.4,0.6,2,1.1
			c0.6,0.5,1.1,1.1,1.6,1.8c0.5,0.7,0.8,1.6,1.1,2.5c0.3,1,0.4,2.1,0.4,3.3v12.9c0,1.9,0.2,3.4,0.6,4.4c0.4,1.1,1.2,1.6,2.2,1.6h0.2
			c1,0,1.9,0.8,1.9,1.9v0c0,1-0.8,1.9-1.9,1.9h-2.2c-0.8,0-1.6-0.2-2.3-0.5c-0.8-0.4-1.4-0.9-2-1.5c-0.6-0.7-1.1-1.5-1.4-2.5
			c-0.4-1-0.6-2.1-0.6-3.4V43.2c0-1-0.1-2-0.3-2.9S6.4,38.4,6,37.6c-0.4-0.8-0.9-1.4-1.6-1.8c-0.2-0.2-0.4-0.3-0.7-0.4
			c-0.9-0.4-1.5-1.2-1.5-2.2v0c0-1,0.6-1.8,1.5-2.2c0.2-0.1,0.5-0.2,0.7-0.4C5,30.2,5.5,29.6,6,28.8c0.4-0.8,0.7-1.6,0.9-2.6
			c0.2-1,0.3-1.9,0.3-2.9V10c0-1.3,0.2-2.4,0.6-3.4c0.4-1,0.9-1.8,1.4-2.5c0.6-0.7,1.3-1.2,2-1.5c0.8-0.4,1.5-0.5,2.3-0.5h2.2
			C16.8,2.1,17.7,2.9,17.7,4z"/>
	</g>
</g>
</svg>
