<?xml version="1.0" encoding="utf-8"?>
<!-- Generator: Adobe Illustrator 24.0.0, SVG Export Plug-In . SVG Version: 6.00 Build 0)  -->
<svg version="1.1" id="Capa_1" xmlns="http://www.w3.org/2000/svg" xmlns:xlink="http://www.w3.org/1999/xlink" x="0px" y="0px"
	 viewBox="0 0 380.2 66.2" style="enable-background:new 0 0 380.2 66.2;" xml:space="preserve">
<style type="text/css">
	.st0{fill:url(#SVGID_1_);}
	.st1{fill:url(#SVGID_2_);}
	.st2{fill:url(#SVGID_3_);}
	.st3{fill:url(#SVGID_4_);}
	.st4{fill:url(#SVGID_5_);}
	.st5{fill:url(#SVGID_6_);}
	.st6{fill:url(#SVGID_7_);}
	.st7{fill:url(#SVGID_8_);}
	.st8{fill:url(#SVGID_9_);}
	.st9{fill:url(#SVGID_10_);}
	.st10{fill:none;stroke:#FFFFFF;stroke-linecap:round;stroke-linejoin:round;stroke-miterlimit:10;}
</style>
<g>
	
		<linearGradient id="SVGID_1_" gradientUnits="userSpaceOnUse" x1="111.5678" y1="60.3028" x2="111.5678" y2="-26.4962" gradientTransform="matrix(1 0 0 -1 0 68)">
		<stop  offset="0" style="stop-color:#FFFFFF"/>
		<stop  offset="1" style="stop-color:#FFFFFF;stop-opacity:0"/>
	</linearGradient>
	<path class="st0" d="M117.9,55.9c-1.4,1.4-3,2.5-4.9,3.4c-1.7,0.9-3.8,1.3-6.1,1.3c-1.8,0-3.6-0.3-5.2-0.9c-1.5-0.5-2.9-1.4-4-2.4
		c-1.1-1-2.1-2.2-2.6-3.6c-0.6-1.4-1-2.8-1-4.3c0-1.6,0.2-3,0.8-4.3c0.4-1.3,1.1-2.4,1.9-3.2c0.8-1,1.7-1.7,2.8-2.4
		c1.1-0.6,2.2-1.1,3.4-1.5c1.2-0.4,2.4-0.6,3.6-0.9c1.2-0.1,2.4-0.2,3.5-0.2c1.7,0,3.2,0.1,4.4,0.2c1.2,0.1,2.3,0.2,3.2,0.4v-3.1
		c0-1.4-0.2-2.5-0.5-3.6c-0.4-1-1-1.8-1.6-2.5c-0.8-0.6-1.6-1.2-2.6-1.5c-1-0.3-2.2-0.4-3.4-0.4c-1.2,0-2.3,0.1-3.4,0.2
		c-1.1,0.1-2.1,0.3-3,0.6c-1,0.2-1.7,0.5-2.6,0.9l0,0c-1.1,0.4-2.5,0-3-1.1l-0.3-0.8c-0.5-1.1-0.1-2.4,1-2.9
		c0.3-0.2,0.8-0.4,1.2-0.5c1.1-0.5,2.3-1,3.5-1.3c1.2-0.3,2.4-0.6,3.7-0.9c1.3-0.2,2.5-0.3,3.7-0.3c2.3,0,4.2,0.2,5.9,0.8
		s3.2,1.3,4.5,2.5c1.2,1.1,2.2,2.5,2.8,4.2s1,3.8,1,6.2v19.1h1.1c1.7,0,3.1,1.4,3.1,3.1l0,0c0,1.7-1.4,3.1-3.1,3.1h-7.8V55.9z
		 M108.6,54.8c0.9,0,1.8-0.1,2.7-0.3c0.9-0.2,1.7-0.5,2.6-0.9c0.9-0.4,1.5-0.9,2.3-1.3c0.6-0.5,1.3-1.1,1.7-1.6v-8.6h-8
		c-1.3,0-2.6,0.1-3.7,0.4c-1.1,0.3-2.1,0.8-2.8,1.3c-0.8,0.5-1.4,1.3-1.8,2.2c-0.4,0.9-0.6,1.8-0.6,2.9c0,1,0.2,1.9,0.5,2.6
		c0.3,0.8,0.9,1.4,1.6,1.8c0.6,0.5,1.5,0.9,2.4,1.2C106.5,54.7,107.5,54.8,108.6,54.8z"/>
	
		<linearGradient id="SVGID_2_" gradientUnits="userSpaceOnUse" x1="155.5622" y1="60.3028" x2="155.5622" y2="-26.4962" gradientTransform="matrix(1 0 0 -1 0 68)">
		<stop  offset="0" style="stop-color:#FFFFFF"/>
		<stop  offset="1" style="stop-color:#FFFFFF;stop-opacity:0"/>
	</linearGradient>
	<path class="st1" d="M166,31.4c-1.1-1.8-2.4-3.2-3.9-4.1c-1.6-0.9-3.5-1.3-5.5-1.3c-1.6,0-3.1,0.3-4.5,1c-1.4,0.6-2.6,1.6-3.7,2.8
		c-1.1,1.2-1.8,2.7-2.5,4.5c-0.6,1.7-0.9,3.8-0.9,5.9s0.3,4.1,0.9,5.8c0.6,1.7,1.4,3.2,2.5,4.4c1.1,1.2,2.3,2.2,3.7,2.8
		c1.4,0.6,2.9,1,4.5,1c2.4,0,4.4-0.5,6.2-1.7c1.1-0.8,2.1-1.6,2.8-2.7c0.9-1.3,2.6-1.7,4-1l0,0c1.7,0.9,2.4,3.1,1.2,4.8
		c-0.2,0.3-0.5,0.8-0.9,1.1c-1.1,1.3-2.3,2.4-3.7,3.2c-1.4,0.9-2.9,1.6-4.5,2.1c-1.6,0.4-3.4,0.8-5.2,0.8c-2.7,0-5.1-0.5-7.4-1.5
		s-4.2-2.4-5.8-4.2c-1.6-1.8-2.9-4-3.8-6.5s-1.4-5.2-1.4-8.2c0-2.9,0.4-5.7,1.4-8.2s2.3-4.6,4-6.4c1.7-1.8,3.7-3.1,5.8-4.2
		c2.3-1,4.6-1.5,7.2-1.5c2.4,0,4.8,0.4,6.8,1.3c2.2,0.9,4,2.2,5.7,3.8h0.6c1.7,0,3.1,1.4,3.1,3.1l0,0c0,1.7-1.4,3.1-3.1,3.1
		C169.8,31.4,166,31.4,166,31.4z"/>
	
		<linearGradient id="SVGID_3_" gradientUnits="userSpaceOnUse" x1="201.9888" y1="60.3028" x2="201.9888" y2="-26.4962" gradientTransform="matrix(1 0 0 -1 0 68)">
		<stop  offset="0" style="stop-color:#FFFFFF"/>
		<stop  offset="1" style="stop-color:#FFFFFF;stop-opacity:0"/>
	</linearGradient>
	<path class="st2" d="M184.1,2h10.3v6.4h-0.1V37h6.7l9.1-9.4l0,0c-1.3,0-2.3-1-2.3-2.3v-1.7c0-1.3,1-2.3,2.3-2.3h9.1
		c1.7,0,3.1,1.4,3.1,3.1l0,0c0,1.7-1.4,3.1-3.1,3.1h-1.6l-11.7,12l12.8,13.6h1.4c1.7,0,3.1,1.4,3.1,3.1l0,0c0,1.7-1.4,3.1-3.1,3.1
		h-5l-15.7-17.1h-5.1v10.8l0,0c1.7,0,3.1,1.4,3.1,3.1l0,0c0,1.7-1.4,3.1-3.1,3.1h-10.1c-1.7,0-3.1-1.4-3.1-3.1l0,0
		c0-1.7,1.4-3.1,3.1-3.1h3.1V8.4H184c-1.7,0-3.1-1.4-3.1-3.1l0,0C181,3.4,182.4,2,184.1,2z"/>
	
		<linearGradient id="SVGID_4_" gradientUnits="userSpaceOnUse" x1="65.6276" y1="60.3028" x2="65.6276" y2="-26.4962" gradientTransform="matrix(1 0 0 -1 0 68)">
		<stop  offset="0" style="stop-color:#FFFFFF"/>
		<stop  offset="1" style="stop-color:#FFFFFF;stop-opacity:0"/>
	</linearGradient>
	<path class="st3" d="M47.5,2h9v23.5h0.2c0.6-0.6,1.5-1.3,2.4-1.9c0.9-0.6,1.8-1.1,2.8-1.6c1-0.4,2.1-0.8,3-1.1
		c1.1-0.2,2.2-0.3,3.4-0.3c2.1,0,3.9,0.3,5.5,0.9c1.6,0.5,3,1.4,4.2,2.6c1.2,1.2,2.1,2.6,2.7,4.4c0.6,1.8,1,4,1,6.4v18.4h2.6
		c1.7,0,3.1,1.4,3.1,3.1l0,0c0,1.7-1.4,3.1-3.1,3.1H72.4c-1.7,0-3.1-1.4-3.1-3.1l0,0c0-1.7,1.4-3.1,3.1-3.1h2.1V35.7
		c0-2.9-0.8-5.2-2.3-6.7c-1.5-1.5-3.7-2.3-6.4-2.3c-1.6,0-3.1,0.3-4.8,1.1c-1.6,0.8-3.1,1.7-4.5,2.8v22.5h2.4c1.7,0,3.1,1.4,3.1,3.1
		l0,0c0,1.7-1.4,3.1-3.1,3.1H47c-1.7,0-3.1-1.4-3.1-3.1l0,0c0-1.7,1.4-3.1,3.1-3.1h2.6V8.4h-2.1c-1.7,0-3.1-1.4-3.1-3.1l0,0
		C44.3,3.4,45.7,2,47.5,2z"/>
	
		<linearGradient id="SVGID_5_" gradientUnits="userSpaceOnUse" x1="17.5796" y1="59.2219" x2="17.5796" y2="-27.5771" gradientTransform="matrix(1 0 0 -1 0 68)">
		<stop  offset="0" style="stop-color:#FFFFFF"/>
		<stop  offset="1" style="stop-color:#FFFFFF;stop-opacity:0"/>
	</linearGradient>
	<path class="st4" d="M4.6,31.2l24.2-12.1c2.1-1,4.4,0.4,4.4,2.7l0,0c0,1.2-0.6,2.3-1.7,2.7L8,35.3l23.3,10.8
		c1.1,0.5,1.7,1.6,1.7,2.7l0,0c0,2.3-2.4,3.7-4.4,2.7l-24.1-12C2.9,38.7,2,37.1,2,35.3l0,0C2,33.5,2.9,31.9,4.6,31.2z"/>
	
		<linearGradient id="SVGID_6_" gradientUnits="userSpaceOnUse" x1="330.8526" y1="61.7173" x2="330.8526" y2="-25.0817" gradientTransform="matrix(0.9982 -5.932896e-02 -5.932896e-02 -0.9982 7.1347 84.02)">
		<stop  offset="0" style="stop-color:#FFFFFF"/>
		<stop  offset="1" style="stop-color:#FFFFFF;stop-opacity:0"/>
	</linearGradient>
	<path class="st5" d="M340,6.5L340,6.5c2.1-0.1,3.7,1.8,3,3.9l-9,51.6c-0.4,1.2-1.4,2-2.7,2.1l0,0c-2.1,0.1-3.7-1.8-3-3.9l9.1-51.6
		C337.6,7.4,338.8,6.6,340,6.5z"/>
	
		<linearGradient id="SVGID_7_" gradientUnits="userSpaceOnUse" x1="362.6604" y1="65.1671" x2="362.6604" y2="-21.6319" gradientTransform="matrix(1 0 0 -1 0 68)">
		<stop  offset="0" style="stop-color:#FFFFFF"/>
		<stop  offset="1" style="stop-color:#FFFFFF;stop-opacity:0"/>
	</linearGradient>
	<path class="st6" d="M375.7,39.4l-24.2,12.1c-2.1,1-4.4-0.4-4.4-2.7l0,0c0-1.2,0.6-2.3,1.7-2.7l23.3-10.8l-23.3-10.8
		c-1.1-0.5-1.7-1.6-1.7-2.7l0,0c0-2.3,2.4-3.7,4.4-2.7l24.2,12.1c1.6,0.8,2.6,2.4,2.6,4.2l0,0C378.3,36.9,377.2,38.5,375.7,39.4z"/>
	<g>
		<linearGradient id="SVGID_8_" gradientUnits="userSpaceOnUse" x1="238.9143" y1="-3.28" x2="238.9143" y2="120.2084">
			<stop  offset="0" style="stop-color:#FFFFFF"/>
			<stop  offset="1" style="stop-color:#FFFFFF;stop-opacity:0"/>
		</linearGradient>
		<path class="st7" d="M234.2,56.4c0-0.6,0.1-1.2,0.4-1.8c0.3-0.6,0.6-1.1,1-1.5c0.4-0.4,0.9-0.8,1.5-1c0.6-0.3,1.2-0.4,1.8-0.4
			c0.6,0,1.2,0.1,1.8,0.4c0.6,0.3,1.1,0.6,1.5,1c0.4,0.4,0.8,0.9,1,1.5c0.3,0.6,0.4,1.2,0.4,1.8c0,0.7-0.1,1.3-0.4,1.9
			c-0.3,0.6-0.6,1.1-1,1.5c-0.4,0.4-0.9,0.8-1.5,1.1c-0.6,0.3-1.2,0.4-1.8,0.4c-0.7,0-1.3-0.1-1.8-0.4c-0.6-0.3-1.1-0.6-1.5-1.1
			c-0.4-0.4-0.8-1-1-1.5C234.3,57.6,234.2,57,234.2,56.4z"/>
		<linearGradient id="SVGID_9_" gradientUnits="userSpaceOnUse" x1="269.8407" y1="-3.28" x2="269.8407" y2="120.2084">
			<stop  offset="0" style="stop-color:#FFFFFF"/>
			<stop  offset="1" style="stop-color:#FFFFFF;stop-opacity:0"/>
		</linearGradient>
		<path class="st8" d="M276,57.3c-1.4,1.3-3,2.4-4.7,3.3c-1.7,0.8-3.7,1.3-5.9,1.3c-1.8,0-3.5-0.3-5.1-0.9c-1.5-0.6-2.9-1.4-4-2.4
			c-1.1-1-2-2.2-2.6-3.5c-0.6-1.3-0.9-2.7-0.9-4.2c0-1.6,0.2-3,0.7-4.2c0.5-1.2,1.1-2.3,1.9-3.2c0.8-0.9,1.7-1.7,2.8-2.3
			c1.1-0.6,2.2-1.1,3.3-1.5c1.1-0.4,2.3-0.6,3.5-0.8c1.2-0.2,2.3-0.2,3.4-0.2c1.7,0,3.2,0.1,4.4,0.2c1.2,0.1,2.3,0.3,3.2,0.5l0-3.1
			c0-1.3-0.2-2.5-0.6-3.5c-0.4-1-0.9-1.8-1.6-2.4c-0.7-0.6-1.5-1.1-2.5-1.4c-1-0.3-2.1-0.5-3.3-0.5c-1.1,0-2.2,0.1-3.3,0.2
			c-1,0.2-2,0.4-2.9,0.6c-0.9,0.3-1.7,0.5-2.5,0.9l0,0c-1.1,0.5-2.4,0-2.9-1.1l-0.3-0.7c-0.5-1.1-0.1-2.3,0.9-2.9
			c0.4-0.2,0.8-0.4,1.2-0.6c1.1-0.5,2.2-0.9,3.4-1.3c1.2-0.4,2.4-0.6,3.6-0.8c1.2-0.2,2.4-0.3,3.6-0.3c2.2,0,4.1,0.3,5.9,0.8
			c1.7,0.5,3.2,1.3,4.4,2.4c1.2,1.1,2.1,2.5,2.8,4.2c0.7,1.7,1,3.7,1,6l0,18.8h1.1c1.7,0,3.1,1.4,3.1,3.1v0c0,1.7-1.4,3.1-3.1,3.1
			h-5.3c-1.4,0-2.5-1.1-2.5-2.5V57.3z M266.8,56.1c0.9,0,1.8-0.1,2.7-0.3c0.9-0.2,1.7-0.5,2.5-0.9c0.8-0.4,1.5-0.8,2.2-1.3
			c0.7-0.5,1.2-1,1.7-1.5l0-8.5h-7.8c-1.3,0-2.5,0.1-3.6,0.4c-1.1,0.3-2,0.7-2.8,1.3c-0.8,0.6-1.4,1.2-1.8,2.1
			c-0.4,0.8-0.7,1.8-0.7,2.8c0,1,0.2,1.9,0.5,2.6c0.4,0.7,0.9,1.4,1.5,1.9c0.7,0.5,1.5,0.9,2.4,1.1C264.7,56,265.7,56.1,266.8,56.1z
			"/>
		<linearGradient id="SVGID_10_" gradientUnits="userSpaceOnUse" x1="306.178" y1="-3.28" x2="306.178" y2="120.2084">
			<stop  offset="0" style="stop-color:#FFFFFF"/>
			<stop  offset="1" style="stop-color:#FFFFFF;stop-opacity:0"/>
		</linearGradient>
		<path class="st9" d="M300.3,23.1h5.8c1.9,0,3.4,1.5,3.4,3.4v28h2.5c1.7,0,3.1,1.4,3.1,3.1v0c0,1.7-1.4,3.1-3.1,3.1h-11.6
			c-1.7,0-3.1-1.4-3.1-3.1v0c0-1.7,1.4-3.1,3.1-3.1h2.3V29.4h-2.3c-1.7,0-3.1-1.4-3.1-3.1v0C297.2,24.5,298.6,23.1,300.3,23.1z
			 M301.4,9.8c0-0.6,0.1-1.2,0.4-1.8c0.3-0.6,0.6-1.1,1-1.5c0.4-0.4,0.9-0.8,1.5-1c0.6-0.3,1.2-0.4,1.9-0.4c0.6,0,1.2,0.1,1.8,0.4
			c0.6,0.3,1.1,0.6,1.5,1c0.4,0.4,0.8,0.9,1,1.5c0.3,0.6,0.4,1.2,0.4,1.8c0,0.7-0.1,1.3-0.4,1.9c-0.3,0.6-0.6,1.1-1,1.5
			c-0.4,0.4-0.9,0.8-1.5,1.1c-0.6,0.3-1.2,0.4-1.8,0.4c-0.7,0-1.3-0.1-1.9-0.4c-0.6-0.3-1.1-0.6-1.5-1.1c-0.4-0.4-0.8-1-1-1.5
			C301.5,11.1,301.4,10.5,301.4,9.8z"/>
	</g>
	<path class="st10" d="M4.6,31.2l24.2-12.1c2.1-1,4.4,0.4,4.4,2.7l0,0c0,1.2-0.6,2.3-1.7,2.7L8,35.3l23.3,10.8
		c1.1,0.5,1.7,1.6,1.7,2.7l0,0c0,2.3-2.4,3.7-4.4,2.7l-24.1-12C2.9,38.7,2,37.1,2,35.3l0,0C2,33.5,2.9,31.9,4.6,31.2z"/>
	<path class="st10" d="M340,6.5L340,6.5c2.1-0.1,3.7,1.8,3,3.9l-9,51.6c-0.4,1.2-1.4,2-2.7,2.1l0,0c-2.1,0.1-3.7-1.8-3-3.9l9.1-51.6
		C337.6,7.4,338.8,6.6,340,6.5z"/>
	<path class="st10" d="M375.7,39.4l-24.2,12.1c-2.1,1-4.4-0.4-4.4-2.7l0,0c0-1.2,0.6-2.3,1.7-2.7l23.3-10.8l-23.3-10.8
		c-1.1-0.5-1.7-1.6-1.7-2.7l0,0c0-2.3,2.4-3.7,4.4-2.7l24.2,12.1c1.6,0.8,2.6,2.4,2.6,4.2l0,0C378.3,36.9,377.2,38.5,375.7,39.4z"/>
	<path class="st10" d="M47.5,2h9v23.5h0.2c0.6-0.6,1.5-1.3,2.4-1.9c0.9-0.6,1.8-1.1,2.8-1.6c1-0.4,2.1-0.8,3-1.1
		c1.1-0.2,2.2-0.3,3.4-0.3c2.1,0,3.9,0.3,5.5,0.9c1.6,0.5,3,1.4,4.2,2.6c1.2,1.2,2.1,2.6,2.7,4.4c0.6,1.8,1,4,1,6.4v18.4h2.6
		c1.7,0,3.1,1.4,3.1,3.1l0,0c0,1.7-1.4,3.1-3.1,3.1H72.4c-1.7,0-3.1-1.4-3.1-3.1l0,0c0-1.7,1.4-3.1,3.1-3.1h2.1V35.7
		c0-2.9-0.8-5.2-2.3-6.7c-1.5-1.5-3.7-2.3-6.4-2.3c-1.6,0-3.1,0.3-4.8,1.1c-1.6,0.8-3.1,1.7-4.5,2.8v22.5h2.4c1.7,0,3.1,1.4,3.1,3.1
		l0,0c0,1.7-1.4,3.1-3.1,3.1H47c-1.7,0-3.1-1.4-3.1-3.1l0,0c0-1.7,1.4-3.1,3.1-3.1h2.6V8.4h-2.1c-1.7,0-3.1-1.4-3.1-3.1l0,0
		C44.3,3.4,45.7,2,47.5,2z"/>
	<path class="st10" d="M117.9,55.9c-1.4,1.4-3,2.5-4.9,3.4c-1.7,0.9-3.8,1.3-6.1,1.3c-1.8,0-3.6-0.3-5.2-0.9c-1.5-0.5-2.9-1.4-4-2.4
		c-1.1-1-2.1-2.2-2.6-3.6c-0.6-1.4-1-2.8-1-4.3c0-1.6,0.2-3,0.8-4.3c0.4-1.3,1.1-2.4,1.9-3.2c0.8-1,1.7-1.7,2.8-2.4
		c1.1-0.6,2.2-1.1,3.4-1.5c1.2-0.4,2.4-0.6,3.6-0.9c1.2-0.1,2.4-0.2,3.5-0.2c1.7,0,3.2,0.1,4.4,0.2c1.2,0.1,2.3,0.2,3.2,0.4v-3.1
		c0-1.4-0.2-2.5-0.5-3.6c-0.4-1-1-1.8-1.6-2.5c-0.8-0.6-1.6-1.2-2.6-1.5c-1-0.3-2.2-0.4-3.4-0.4c-1.2,0-2.3,0.1-3.4,0.2
		c-1.1,0.1-2.1,0.3-3,0.6c-1,0.2-1.7,0.5-2.6,0.9l0,0c-1.1,0.4-2.5,0-3-1.1l-0.3-0.8c-0.5-1.1-0.1-2.4,1-2.9
		c0.3-0.2,0.8-0.4,1.2-0.5c1.1-0.5,2.3-1,3.5-1.3c1.2-0.3,2.4-0.6,3.7-0.9c1.3-0.2,2.5-0.3,3.7-0.3c2.3,0,4.2,0.2,5.9,0.8
		s3.2,1.3,4.5,2.5c1.2,1.1,2.2,2.5,2.8,4.2s1,3.8,1,6.2v19.1h1.1c1.7,0,3.1,1.4,3.1,3.1l0,0c0,1.7-1.4,3.1-3.1,3.1h-7.8V55.9z
		 M108.6,54.8c0.9,0,1.8-0.1,2.7-0.3c0.9-0.2,1.7-0.5,2.6-0.9c0.9-0.4,1.5-0.9,2.3-1.3c0.6-0.5,1.3-1.1,1.7-1.6v-8.6h-8
		c-1.3,0-2.6,0.1-3.7,0.4c-1.1,0.3-2.1,0.8-2.8,1.3c-0.8,0.5-1.4,1.3-1.8,2.2c-0.4,0.9-0.6,1.8-0.6,2.9c0,1,0.2,1.9,0.5,2.6
		c0.3,0.8,0.9,1.4,1.6,1.8c0.6,0.5,1.5,0.9,2.4,1.2C106.5,54.7,107.5,54.8,108.6,54.8z"/>
	<path class="st10" d="M166,31.4c-1.1-1.8-2.4-3.2-3.9-4.1c-1.6-0.9-3.5-1.3-5.5-1.3c-1.6,0-3.1,0.3-4.5,1c-1.4,0.6-2.6,1.6-3.7,2.8
		c-1.1,1.2-1.8,2.7-2.5,4.5c-0.6,1.7-0.9,3.8-0.9,5.9s0.3,4.1,0.9,5.8c0.6,1.7,1.4,3.2,2.5,4.4c1.1,1.2,2.3,2.2,3.7,2.8
		c1.4,0.6,2.9,1,4.5,1c2.4,0,4.4-0.5,6.2-1.7c1.1-0.8,2.1-1.6,2.8-2.7c0.9-1.3,2.6-1.7,4-1l0,0c1.7,0.9,2.4,3.1,1.2,4.8
		c-0.2,0.3-0.5,0.8-0.9,1.1c-1.1,1.3-2.3,2.4-3.7,3.2c-1.4,0.9-2.9,1.6-4.5,2.1c-1.6,0.4-3.4,0.8-5.2,0.8c-2.7,0-5.1-0.5-7.4-1.5
		s-4.2-2.4-5.8-4.2c-1.6-1.8-2.9-4-3.8-6.5s-1.4-5.2-1.4-8.2c0-2.9,0.4-5.7,1.4-8.2s2.3-4.6,4-6.4c1.7-1.8,3.7-3.1,5.8-4.2
		c2.3-1,4.6-1.5,7.2-1.5c2.4,0,4.8,0.4,6.8,1.3c2.2,0.9,4,2.2,5.7,3.8h0.6c1.7,0,3.1,1.4,3.1,3.1l0,0c0,1.7-1.4,3.1-3.1,3.1
		C169.8,31.4,166,31.4,166,31.4z"/>
	<path class="st10" d="M184.1,2h10.3v6.4h-0.1V37h6.7l9.1-9.4l0,0c-1.3,0-2.3-1-2.3-2.3v-1.7c0-1.3,1-2.3,2.3-2.3h9.1
		c1.7,0,3.1,1.4,3.1,3.1l0,0c0,1.7-1.4,3.1-3.1,3.1h-1.6l-11.7,12l12.8,13.6h1.4c1.7,0,3.1,1.4,3.1,3.1l0,0c0,1.7-1.4,3.1-3.1,3.1
		h-5l-15.7-17.1h-5.1v10.8l0,0c1.7,0,3.1,1.4,3.1,3.1l0,0c0,1.7-1.4,3.1-3.1,3.1h-10.1c-1.7,0-3.1-1.4-3.1-3.1l0,0
		c0-1.7,1.4-3.1,3.1-3.1h3.1V8.4H184c-1.7,0-3.1-1.4-3.1-3.1l0,0C181,3.4,182.4,2,184.1,2z"/>
	<g>
		<path class="st10" d="M234.2,56.4c0-0.6,0.1-1.2,0.4-1.8c0.3-0.6,0.6-1.1,1-1.5c0.4-0.4,0.9-0.8,1.5-1c0.6-0.3,1.2-0.4,1.8-0.4
			c0.6,0,1.2,0.1,1.8,0.4c0.6,0.3,1.1,0.6,1.5,1c0.4,0.4,0.8,0.9,1,1.5c0.3,0.6,0.4,1.2,0.4,1.8c0,0.7-0.1,1.3-0.4,1.9
			c-0.3,0.6-0.6,1.1-1,1.5c-0.4,0.4-0.9,0.8-1.5,1.1c-0.6,0.3-1.2,0.4-1.8,0.4c-0.7,0-1.3-0.1-1.8-0.4c-0.6-0.3-1.1-0.6-1.5-1.1
			c-0.4-0.4-0.8-1-1-1.5C234.3,57.7,234.2,57.1,234.2,56.4z"/>
		<path class="st10" d="M276,57.3c-1.4,1.3-3,2.4-4.7,3.3c-1.7,0.8-3.7,1.3-5.9,1.3c-1.8,0-3.5-0.3-5.1-0.9c-1.5-0.6-2.9-1.4-4-2.4
			c-1.1-1-2-2.2-2.6-3.5c-0.6-1.3-0.9-2.7-0.9-4.2c0-1.6,0.2-3,0.7-4.2c0.5-1.2,1.1-2.3,1.9-3.2c0.8-0.9,1.7-1.7,2.8-2.3
			c1.1-0.6,2.2-1.1,3.3-1.5c1.1-0.4,2.3-0.6,3.5-0.8c1.2-0.2,2.3-0.2,3.4-0.2c1.7,0,3.2,0.1,4.4,0.2c1.2,0.1,2.3,0.3,3.2,0.5l0-3.1
			c0-1.3-0.2-2.5-0.6-3.5c-0.4-1-0.9-1.8-1.6-2.4c-0.7-0.6-1.5-1.1-2.5-1.4c-1-0.3-2.1-0.5-3.3-0.5c-1.1,0-2.2,0.1-3.3,0.2
			c-1,0.2-2,0.4-2.9,0.6c-0.9,0.3-1.7,0.5-2.5,0.9l0,0c-1.1,0.5-2.4,0-2.9-1.1l-0.3-0.7c-0.5-1.1-0.1-2.3,0.9-2.9
			c0.4-0.2,0.8-0.4,1.2-0.6c1.1-0.5,2.2-0.9,3.4-1.3c1.2-0.4,2.4-0.6,3.6-0.8c1.2-0.2,2.4-0.3,3.6-0.3c2.2,0,4.1,0.3,5.9,0.8
			c1.7,0.5,3.2,1.3,4.4,2.4c1.2,1.1,2.1,2.5,2.8,4.2c0.7,1.7,1,3.7,1,6l0,18.8h1.1c1.7,0,3.1,1.4,3.1,3.1v0c0,1.7-1.4,3.1-3.1,3.1
			h-5.3c-1.4,0-2.5-1.1-2.5-2.5V57.3z M266.8,56.2c0.9,0,1.8-0.1,2.7-0.3c0.9-0.2,1.7-0.5,2.5-0.9c0.8-0.4,1.5-0.8,2.2-1.3
			c0.7-0.5,1.2-1,1.7-1.5l0-8.5h-7.8c-1.3,0-2.5,0.1-3.6,0.4c-1.1,0.3-2,0.7-2.8,1.3c-0.8,0.6-1.4,1.2-1.8,2.1
			c-0.4,0.8-0.7,1.8-0.7,2.8c0,1,0.2,1.9,0.5,2.6c0.4,0.7,0.9,1.4,1.5,1.9c0.7,0.5,1.5,0.9,2.4,1.1
			C264.7,56.1,265.7,56.2,266.8,56.2z"/>
		<path class="st10" d="M300.3,23.2h5.8c1.9,0,3.4,1.5,3.4,3.4v28h2.5c1.7,0,3.1,1.4,3.1,3.1v0c0,1.7-1.4,3.1-3.1,3.1h-11.6
			c-1.7,0-3.1-1.4-3.1-3.1v0c0-1.7,1.4-3.1,3.1-3.1h2.3V29.4h-2.3c-1.7,0-3.1-1.4-3.1-3.1v0C297.2,24.6,298.6,23.2,300.3,23.2z
			 M301.4,9.9c0-0.6,0.1-1.2,0.4-1.8c0.3-0.6,0.6-1.1,1-1.5c0.4-0.4,0.9-0.8,1.5-1c0.6-0.3,1.2-0.4,1.9-0.4c0.6,0,1.2,0.1,1.8,0.4
			c0.6,0.3,1.1,0.6,1.5,1c0.4,0.4,0.8,0.9,1,1.5c0.3,0.6,0.4,1.2,0.4,1.8c0,0.7-0.1,1.3-0.4,1.9c-0.3,0.6-0.6,1.1-1,1.5
			c-0.4,0.4-0.9,0.8-1.5,1.1c-0.6,0.3-1.2,0.4-1.8,0.4c-0.7,0-1.3-0.1-1.9-0.4c-0.6-0.3-1.1-0.6-1.5-1.1c-0.4-0.4-0.8-1-1-1.5
			C301.5,11.1,301.4,10.5,301.4,9.9z"/>
	</g>
</g>
</svg>
