<?xml version="1.0" encoding="utf-8"?>
<!-- Generator: Adobe Illustrator 24.0.0, SVG Export Plug-In . SVG Version: 6.00 Build 0)  -->
<svg version="1.1" id="Capa_1" xmlns="http://www.w3.org/2000/svg" xmlns:xlink="http://www.w3.org/1999/xlink" x="0px" y="0px"
	 viewBox="0 0 454.4 66.2" style="enable-background:new 0 0 454.4 66.2;" xml:space="preserve">
<style type="text/css">
	.st0{opacity:0.63;}
	.st1{fill:url(#SVGID_1_);}
	.st2{fill:url(#SVGID_2_);}
	.st3{fill:url(#SVGID_3_);}
	.st4{fill:url(#SVGID_4_);}
	.st5{fill:url(#SVGID_5_);}
	.st6{fill:url(#SVGID_6_);}
	.st7{fill:url(#SVGID_7_);}
	.st8{fill:url(#SVGID_8_);}
	.st9{fill:url(#SVGID_9_);}
	.st10{fill:url(#SVGID_10_);}
	.st11{fill:url(#SVGID_11_);}
	.st12{fill:none;stroke:#FFFFFF;stroke-linecap:round;stroke-linejoin:round;stroke-miterlimit:10;}
	.st13{fill:none;stroke:#FFFFFF;stroke-miterlimit:10;}
</style>
<g>
	<g class="st0">
		<linearGradient id="SVGID_1_" gradientUnits="userSpaceOnUse" x1="16.1031" y1="7.4933" x2="16.1031" y2="87.7925">
			<stop  offset="0" style="stop-color:#FFFFFF"/>
			<stop  offset="1" style="stop-color:#FFFFFF;stop-opacity:0"/>
		</linearGradient>
		<path class="st1" d="M4.1,28.2l22.4-11.2c1.9-0.9,4.1,0.4,4.1,2.5v0c0,1.1-0.6,2.1-1.6,2.5L7.3,32l21.6,10c1,0.5,1.6,1.5,1.6,2.5
			v0c0,2.1-2.2,3.4-4.1,2.5L4.1,35.9c-1.5-0.7-2.4-2.2-2.4-3.9v0C1.7,30.4,2.6,28.9,4.1,28.2z"/>
		<linearGradient id="SVGID_2_" gradientUnits="userSpaceOnUse" x1="103.205" y1="7.4933" x2="103.205" y2="87.7925">
			<stop  offset="0" style="stop-color:#FFFFFF"/>
			<stop  offset="1" style="stop-color:#FFFFFF;stop-opacity:0"/>
		</linearGradient>
		<path class="st2" d="M109,52.1c-1.3,1.3-2.8,2.3-4.5,3.1c-1.6,0.8-3.5,1.2-5.6,1.2c-1.7,0-3.3-0.3-4.8-0.8
			c-1.4-0.5-2.7-1.3-3.7-2.2s-1.9-2-2.4-3.3c-0.6-1.3-0.9-2.6-0.9-4c0-1.5,0.2-2.8,0.7-4c0.4-1.2,1-2.2,1.8-3
			c0.7-0.9,1.6-1.6,2.6-2.2c1-0.6,2-1,3.1-1.4c1.1-0.4,2.2-0.6,3.3-0.8c1.1-0.1,2.2-0.2,3.2-0.2c1.6,0,3,0.1,4.1,0.2
			c1.1,0.1,2.1,0.2,3,0.4l0-2.9c0-1.3-0.2-2.3-0.5-3.3c-0.4-0.9-0.9-1.7-1.5-2.3c-0.7-0.6-1.5-1.1-2.4-1.4c-0.9-0.3-2-0.4-3.1-0.4
			c-1.1,0-2.1,0.1-3.1,0.2c-1,0.1-1.9,0.3-2.8,0.6c-0.9,0.2-1.6,0.5-2.4,0.8l0,0c-1,0.4-2.3,0-2.8-1l-0.3-0.7
			c-0.5-1-0.1-2.2,0.9-2.7c0.3-0.2,0.7-0.4,1.1-0.5c1-0.5,2.1-0.9,3.2-1.2c1.1-0.3,2.2-0.6,3.4-0.8c1.2-0.2,2.3-0.3,3.4-0.3
			c2.1,0,3.9,0.2,5.5,0.7c1.6,0.5,3,1.2,4.2,2.3c1.1,1,2,2.3,2.6,3.9c0.6,1.6,0.9,3.5,0.9,5.7l0,17.7h1c1.6,0,2.9,1.3,2.9,2.9v0
			c0,1.6-1.3,2.9-2.9,2.9H109V52.1z M100.4,51.1c0.8,0,1.7-0.1,2.5-0.3c0.8-0.2,1.6-0.5,2.4-0.8c0.8-0.4,1.4-0.8,2.1-1.2
			c0.6-0.5,1.2-1,1.6-1.5l0-8h-7.4c-1.2,0-2.4,0.1-3.4,0.4c-1,0.3-1.9,0.7-2.6,1.2c-0.7,0.5-1.3,1.2-1.7,2c-0.4,0.8-0.6,1.7-0.6,2.7
			c0,0.9,0.2,1.8,0.5,2.4c0.3,0.7,0.8,1.3,1.5,1.7c0.6,0.5,1.4,0.8,2.2,1.1C98.4,51,99.3,51.1,100.4,51.1z"/>
		<linearGradient id="SVGID_3_" gradientUnits="userSpaceOnUse" x1="143.7526" y1="7.4933" x2="143.7526" y2="87.7925">
			<stop  offset="0" style="stop-color:#FFFFFF"/>
			<stop  offset="1" style="stop-color:#FFFFFF;stop-opacity:0"/>
		</linearGradient>
		<path class="st3" d="M153.5,29.4c-1-1.7-2.2-3-3.6-3.8c-1.5-0.8-3.2-1.2-5.1-1.2c-1.5,0-2.9,0.3-4.2,0.9c-1.3,0.6-2.4,1.5-3.4,2.6
			c-1,1.1-1.7,2.5-2.3,4.2c-0.6,1.6-0.8,3.5-0.8,5.5c0,2,0.3,3.8,0.8,5.4c0.6,1.6,1.3,3,2.3,4.1c1,1.1,2.1,2,3.4,2.6
			c1.3,0.6,2.7,0.9,4.2,0.9c2.2,0,4.1-0.5,5.7-1.6c1-0.7,1.9-1.5,2.6-2.5c0.8-1.2,2.4-1.6,3.7-0.9l0,0c1.6,0.8,2.2,2.9,1.1,4.4
			c-0.2,0.3-0.5,0.7-0.8,1c-1,1.2-2.1,2.2-3.4,3c-1.3,0.8-2.7,1.5-4.2,1.9c-1.5,0.4-3.1,0.7-4.8,0.7c-2.5,0-4.7-0.5-6.8-1.4
			c-2.1-0.9-3.9-2.2-5.4-3.9c-1.5-1.7-2.7-3.7-3.5-6c-0.8-2.3-1.3-4.8-1.3-7.6c0-2.7,0.4-5.3,1.3-7.6c0.9-2.3,2.1-4.3,3.7-5.9
			c1.6-1.7,3.4-2.9,5.4-3.9c2.1-0.9,4.3-1.4,6.7-1.4c2.2,0,4.4,0.4,6.3,1.2c2,0.8,3.7,2,5.3,3.5h0.6c1.6,0,2.9,1.3,2.9,2.9v0
			c0,1.6-1.3,2.9-2.9,2.9H153.5z"/>
		<linearGradient id="SVGID_4_" gradientUnits="userSpaceOnUse" x1="186.8158" y1="7.4933" x2="186.8158" y2="87.7925">
			<stop  offset="0" style="stop-color:#FFFFFF"/>
			<stop  offset="1" style="stop-color:#FFFFFF;stop-opacity:0"/>
		</linearGradient>
		<path class="st4" d="M170.2,2.2l9.5,0v5.9h-0.1v26.5h6.2l8.4-8.7l0,0c-1.2,0-2.1-0.9-2.1-2.1v-1.6c0-1.2,0.9-2.1,2.1-2.1h8.4
			c1.6,0,2.9,1.3,2.9,2.9v0c0,1.6-1.3,2.9-2.9,2.9h-1.5L190.3,37l11.8,12.6h1.3c1.6,0,2.9,1.3,2.9,2.9v0c0,1.6-1.3,2.9-2.9,2.9h-4.6
			l-14.5-15.8h-4.7v10l0,0c1.6,0,2.9,1.3,2.9,2.9v0c0,1.6-1.3,2.9-2.9,2.9h-9.3c-1.6,0-2.9-1.3-2.9-2.9v0c0-1.6,1.3-2.9,2.9-2.9h2.9
			V8.1h-3.1c-1.6,0-2.9-1.3-2.9-2.9v0C167.3,3.5,168.6,2.2,170.2,2.2z"/>
		<linearGradient id="SVGID_5_" gradientUnits="userSpaceOnUse" x1="231.4531" y1="7.4933" x2="231.4531" y2="87.7925">
			<stop  offset="0" style="stop-color:#FFFFFF"/>
			<stop  offset="1" style="stop-color:#FFFFFF;stop-opacity:0"/>
		</linearGradient>
		<path class="st5" d="M236.8,2.2h8.2v47.4h2.3c1.6,0,2.9,1.3,2.9,2.9v0c0,1.6-1.3,2.9-2.9,2.9h-8.6v-2.9c-1.1,1.2-2.5,2.1-4,2.7
			c-1.5,0.6-3.2,1-5.1,1c-2.4,0-4.6-0.4-6.7-1.2c-2.1-0.8-3.9-2.1-5.4-3.7c-1.5-1.6-2.7-3.6-3.6-5.9c-0.9-2.3-1.3-5-1.3-8
			c0-2.7,0.4-5.2,1.2-7.5c0.8-2.2,2-4.2,3.5-5.7c1.5-1.6,3.3-2.8,5.4-3.7c2.1-0.9,4.5-1.3,7.1-1.3c1.7,0,3.3,0.2,4.7,0.6
			c1.4,0.4,2.8,1,4.1,2V8.1h-1.9c-1.6,0-2.9-1.3-2.9-2.9v0C233.8,3.5,235.2,2.2,236.8,2.2z M230.4,50.7c1.9,0,3.5-0.3,4.8-0.8
			c1.3-0.6,2.5-1.4,3.5-2.5V27.5c-1.1-1-2.5-1.7-3.9-2.1c-1.5-0.4-3-0.7-4.6-0.7c-1.5,0-2.9,0.3-4.2,0.8c-1.3,0.6-2.5,1.4-3.5,2.4
			c-1,1.1-1.8,2.4-2.3,3.9c-0.6,1.6-0.9,3.3-0.9,5.3c0,2.2,0.3,4.1,0.8,5.8c0.5,1.7,1.3,3.1,2.3,4.2c1,1.1,2.2,2,3.5,2.5
			C227.3,50.4,228.8,50.7,230.4,50.7z"/>
		<linearGradient id="SVGID_6_" gradientUnits="userSpaceOnUse" x1="275.0126" y1="7.4933" x2="275.0126" y2="87.7925">
			<stop  offset="0" style="stop-color:#FFFFFF"/>
			<stop  offset="1" style="stop-color:#FFFFFF;stop-opacity:0"/>
		</linearGradient>
		<path class="st6" d="M257.3,37.7c0-2.8,0.5-5.4,1.4-7.7c0.9-2.3,2.1-4.3,3.7-5.9c1.6-1.7,3.4-2.9,5.6-3.8s4.6-1.3,7.2-1.3
			c2.6,0,5,0.4,7.2,1.3s4,2.2,5.6,3.8c1.6,1.6,2.8,3.6,3.6,5.9c0.9,2.3,1.3,4.9,1.3,7.7c0,2.8-0.4,5.3-1.3,7.6
			c-0.9,2.3-2.1,4.3-3.6,6c-1.6,1.7-3.4,3-5.6,3.9c-2.2,0.9-4.6,1.4-7.2,1.4c-2.7,0-5.1-0.5-7.3-1.4s-4-2.2-5.6-3.8
			c-1.6-1.7-2.8-3.6-3.6-5.9C257.7,43,257.3,40.5,257.3,37.7z M264,37.7c0,2,0.3,3.9,0.9,5.5c0.6,1.6,1.4,3,2.4,4.2
			c1,1.2,2.2,2,3.5,2.7c1.3,0.6,2.8,0.9,4.3,0.9c1.6,0,3-0.3,4.4-0.9c1.4-0.6,2.5-1.5,3.5-2.7c1-1.2,1.8-2.5,2.4-4.2
			c0.6-1.6,0.9-3.5,0.9-5.5c0-2.1-0.3-4-0.9-5.7c-0.6-1.7-1.4-3.1-2.3-4.2c-1-1.1-2.2-2-3.5-2.5c-1.4-0.6-2.8-0.9-4.4-0.9
			c-1.5,0-2.9,0.3-4.3,0.9c-1.3,0.6-2.5,1.4-3.5,2.5c-1,1.1-1.8,2.5-2.4,4.2C264.3,33.6,264,35.6,264,37.7z"/>
		<linearGradient id="SVGID_7_" gradientUnits="userSpaceOnUse" x1="324.988" y1="7.4933" x2="324.988" y2="87.7925">
			<stop  offset="0" style="stop-color:#FFFFFF"/>
			<stop  offset="1" style="stop-color:#FFFFFF;stop-opacity:0"/>
		</linearGradient>
		<path class="st7" d="M301.3,20h6.6c0.9,0,1.6,0.7,1.6,1.6v2.6c0,0.9-0.7,1.6-1.6,1.6l0,0l6.2,22.6l7.7-26c0.4-1.5,1.8-2.5,3.4-2.5
			l0,0c1.6,0,3,1.1,3.4,2.6l7.4,25.9l6.5-22.6l0,0c-1.1,0-2.1-0.9-2.1-2.1V22c0-1.1,0.9-2.1,2.1-2.1h6.2c1.6,0,2.9,1.3,2.9,2.9v0
			c0,1.6-1.3,2.9-2.9,2.9h-0.1l-8.8,27.4c-0.5,1.6-2.1,2.7-3.8,2.7l0,0c-1.8,0-3.3-1.2-3.8-2.9L325,27.7l-7.2,25.4
			c-0.5,1.7-2,2.9-3.8,2.9h-0.1c-1.7,0-3.3-1.1-3.8-2.8l-8.8-27.4h-0.1c-1.6,0-2.9-1.3-2.9-2.9v0C298.3,21.3,299.6,20,301.3,20z"/>
		<linearGradient id="SVGID_8_" gradientUnits="userSpaceOnUse" x1="378.5218" y1="7.4933" x2="378.5218" y2="87.7925">
			<stop  offset="0" style="stop-color:#FFFFFF"/>
			<stop  offset="1" style="stop-color:#FFFFFF;stop-opacity:0"/>
		</linearGradient>
		<path class="st8" d="M384.9,49.5h2.1V33.4c0-2.7-0.7-4.8-2.1-6.2c-1.4-1.4-3.4-2.1-5.9-2.1c-1.5,0-3,0.4-4.5,1.1
			c-1.5,0.7-2.9,1.6-4.3,2.6v20.8h2.1c1.6,0,2.9,1.3,2.9,2.9v0c0,1.6-1.3,2.9-2.9,2.9h-10.7c-1.6,0-2.9-1.3-2.9-2.9v0
			c0-1.6,1.3-2.9,2.9-2.9h2V25.9h-2c-1.6,0-2.9-1.3-2.9-2.9v0c0-1.6,1.3-2.9,2.9-2.9h8.4v4.2h0.1c0.8-0.7,1.6-1.3,2.4-1.9
			c0.9-0.6,1.8-1.1,2.7-1.5c0.9-0.4,1.9-0.8,2.9-1c1-0.3,2.1-0.4,3.2-0.4c1.9,0,3.6,0.3,5.1,0.8c1.5,0.5,2.8,1.3,3.9,2.4
			c1.1,1.1,1.9,2.4,2.5,4.1c0.6,1.7,0.9,3.7,0.9,5.9v17h2c1.6,0,2.9,1.3,2.9,2.9v0c0,1.6-1.3,2.9-2.9,2.9h-10.7
			c-1.6,0-2.9-1.3-2.9-2.9v0C381.9,50.9,383.2,49.5,384.9,49.5z"/>
		<linearGradient id="SVGID_9_" gradientUnits="userSpaceOnUse" x1="411.9423" y1="7.4933" x2="411.9423" y2="87.7925">
			<stop  offset="0" style="stop-color:#FFFFFF"/>
			<stop  offset="1" style="stop-color:#FFFFFF;stop-opacity:0"/>
		</linearGradient>
		<path class="st9" d="M417.5,11.3L417.5,11.3c1.9,0,3.3,1.9,2.6,3.8L409,62.3c-0.4,1.1-1.4,1.8-2.6,1.8l0,0c-1.9,0-3.3-1.9-2.6-3.8
			l11.2-47.2C415.3,12,416.4,11.3,417.5,11.3z"/>
		<linearGradient id="SVGID_10_" gradientUnits="userSpaceOnUse" x1="438.3364" y1="7.4933" x2="438.3364" y2="87.7925">
			<stop  offset="0" style="stop-color:#FFFFFF"/>
			<stop  offset="1" style="stop-color:#FFFFFF;stop-opacity:0"/>
		</linearGradient>
		<path class="st10" d="M450.4,41.3L428,52.5c-1.9,0.9-4.1-0.4-4.1-2.5v0c0-1.1,0.6-2.1,1.6-2.5l21.6-10l-21.6-10
			c-1-0.5-1.6-1.5-1.6-2.5v0c0-2.1,2.2-3.4,4.1-2.5l22.4,11.2c1.5,0.7,2.4,2.2,2.4,3.9v0C452.8,39,451.8,40.5,450.4,41.3z"/>
		<linearGradient id="SVGID_11_" gradientUnits="userSpaceOnUse" x1="60.6036" y1="7.4933" x2="60.6036" y2="87.7925">
			<stop  offset="0" style="stop-color:#FFFFFF"/>
			<stop  offset="1" style="stop-color:#FFFFFF;stop-opacity:0"/>
		</linearGradient>
		<path class="st11" d="M43.8,2.2l8.3,0v21.7h0.2c0.6-0.6,1.4-1.2,2.2-1.8c0.8-0.6,1.7-1,2.6-1.5c0.9-0.4,1.9-0.7,2.8-1
			c1-0.2,2-0.3,3.1-0.3c1.9,0,3.6,0.3,5.1,0.8c1.5,0.5,2.8,1.3,3.9,2.4c1.1,1.1,1.9,2.4,2.5,4.1c0.6,1.7,0.9,3.7,0.9,5.9v17h2.4
			c1.6,0,2.9,1.3,2.9,2.9v0c0,1.6-1.3,2.9-2.9,2.9H66.9c-1.6,0-2.9-1.3-2.9-2.9v0c0-1.6,1.3-2.9,2.9-2.9h1.9V33.4
			c0-2.7-0.7-4.8-2.1-6.2s-3.4-2.1-5.9-2.1c-1.5,0-2.9,0.3-4.4,1c-1.5,0.7-2.9,1.6-4.2,2.6v20.8h2.2c1.6,0,2.9,1.3,2.9,2.9v0
			c0,1.6-1.3,2.9-2.9,2.9H43.4c-1.6,0-2.9-1.3-2.9-2.9v0c0-1.6,1.3-2.9,2.9-2.9h2.4V8.1h-1.9c-1.6,0-2.9-1.3-2.9-2.9v0
			C40.9,3.5,42.2,2.2,43.8,2.2z"/>
	</g>
	<path class="st12" d="M4.1,28.2l22.4-11.2c1.9-0.9,4.1,0.4,4.1,2.5v0c0,1.1-0.6,2.1-1.6,2.5L7.3,32l21.6,10c1,0.5,1.6,1.5,1.6,2.5
		v0c0,2.1-2.2,3.4-4.1,2.5L4.1,35.9c-1.5-0.7-2.4-2.2-2.4-3.9v0C1.7,30.4,2.6,28.9,4.1,28.2z"/>
	<path class="st12" d="M43.8,2.2l8.3,0v21.7h0.2c0.6-0.6,1.4-1.2,2.2-1.8c0.8-0.6,1.7-1,2.6-1.5c0.9-0.4,1.9-0.7,2.8-1
		c1-0.2,2-0.3,3.1-0.3c1.9,0,3.6,0.3,5.1,0.8c1.5,0.5,2.8,1.3,3.9,2.4c1.1,1.1,1.9,2.4,2.5,4.1c0.6,1.7,0.9,3.7,0.9,5.9v17h2.4
		c1.6,0,2.9,1.3,2.9,2.9v0c0,1.6-1.3,2.9-2.9,2.9H66.9c-1.6,0-2.9-1.3-2.9-2.9v0c0-1.6,1.3-2.9,2.9-2.9h1.9V33.4
		c0-2.7-0.7-4.8-2.1-6.2s-3.4-2.1-5.9-2.1c-1.5,0-2.9,0.3-4.4,1c-1.5,0.7-2.9,1.6-4.2,2.6v20.8h2.2c1.6,0,2.9,1.3,2.9,2.9v0
		c0,1.6-1.3,2.9-2.9,2.9H43.4c-1.6,0-2.9-1.3-2.9-2.9v0c0-1.6,1.3-2.9,2.9-2.9h2.4V8.1h-1.9c-1.6,0-2.9-1.3-2.9-2.9v0
		C40.9,3.5,42.2,2.2,43.8,2.2z"/>
	<path class="st12" d="M109,52.1c-1.3,1.3-2.8,2.3-4.5,3.1c-1.6,0.8-3.5,1.2-5.6,1.2c-1.7,0-3.3-0.3-4.8-0.8
		c-1.4-0.5-2.7-1.3-3.7-2.2s-1.9-2-2.4-3.3c-0.6-1.3-0.9-2.6-0.9-4c0-1.5,0.2-2.8,0.7-4c0.4-1.2,1-2.2,1.8-3
		c0.7-0.9,1.6-1.6,2.6-2.2c1-0.6,2-1,3.1-1.4c1.1-0.4,2.2-0.6,3.3-0.8c1.1-0.1,2.2-0.2,3.2-0.2c1.6,0,3,0.1,4.1,0.2
		c1.1,0.1,2.1,0.2,3,0.4l0-2.9c0-1.3-0.2-2.3-0.5-3.3c-0.4-0.9-0.9-1.7-1.5-2.3c-0.7-0.6-1.5-1.1-2.4-1.4c-0.9-0.3-2-0.4-3.1-0.4
		c-1.1,0-2.1,0.1-3.1,0.2c-1,0.1-1.9,0.3-2.8,0.6c-0.9,0.2-1.6,0.5-2.4,0.8l0,0c-1,0.4-2.3,0-2.8-1l-0.3-0.7c-0.5-1-0.1-2.2,0.9-2.7
		c0.3-0.2,0.7-0.4,1.1-0.5c1-0.5,2.1-0.9,3.2-1.2c1.1-0.3,2.2-0.6,3.4-0.8c1.2-0.2,2.3-0.3,3.4-0.3c2.1,0,3.9,0.2,5.5,0.7
		c1.6,0.5,3,1.2,4.2,2.3c1.1,1,2,2.3,2.6,3.9c0.6,1.6,0.9,3.5,0.9,5.7l0,17.7h1c1.6,0,2.9,1.3,2.9,2.9v0c0,1.6-1.3,2.9-2.9,2.9H109
		V52.1z M100.4,51.1c0.8,0,1.7-0.1,2.5-0.3c0.8-0.2,1.6-0.5,2.4-0.8c0.8-0.4,1.4-0.8,2.1-1.2c0.6-0.5,1.2-1,1.6-1.5l0-8h-7.4
		c-1.2,0-2.4,0.1-3.4,0.4c-1,0.3-1.9,0.7-2.6,1.2c-0.7,0.5-1.3,1.2-1.7,2c-0.4,0.8-0.6,1.7-0.6,2.7c0,0.9,0.2,1.8,0.5,2.4
		c0.3,0.7,0.8,1.3,1.5,1.7c0.6,0.5,1.4,0.8,2.2,1.1C98.4,51,99.3,51.1,100.4,51.1z"/>
	<path class="st12" d="M153.5,29.4c-1-1.7-2.2-3-3.6-3.8c-1.5-0.8-3.2-1.2-5.1-1.2c-1.5,0-2.9,0.3-4.2,0.9c-1.3,0.6-2.4,1.5-3.4,2.6
		c-1,1.1-1.7,2.5-2.3,4.2c-0.6,1.6-0.8,3.5-0.8,5.5c0,2,0.3,3.8,0.8,5.4c0.6,1.6,1.3,3,2.3,4.1c1,1.1,2.1,2,3.4,2.6
		c1.3,0.6,2.7,0.9,4.2,0.9c2.2,0,4.1-0.5,5.7-1.6c1-0.7,1.9-1.5,2.6-2.5c0.8-1.2,2.4-1.6,3.7-0.9l0,0c1.6,0.8,2.2,2.9,1.1,4.4
		c-0.2,0.3-0.5,0.7-0.8,1c-1,1.2-2.1,2.2-3.4,3c-1.3,0.8-2.7,1.5-4.2,1.9c-1.5,0.4-3.1,0.7-4.8,0.7c-2.5,0-4.7-0.5-6.8-1.4
		c-2.1-0.9-3.9-2.2-5.4-3.9c-1.5-1.7-2.7-3.7-3.5-6c-0.8-2.3-1.3-4.8-1.3-7.6c0-2.7,0.4-5.3,1.3-7.6c0.9-2.3,2.1-4.3,3.7-5.9
		c1.6-1.7,3.4-2.9,5.4-3.9c2.1-0.9,4.3-1.4,6.7-1.4c2.2,0,4.4,0.4,6.3,1.2c2,0.8,3.7,2,5.3,3.5h0.6c1.6,0,2.9,1.3,2.9,2.9v0
		c0,1.6-1.3,2.9-2.9,2.9H153.5z"/>
	<path class="st12" d="M170.2,2.2l9.5,0v5.9h-0.1v26.5h6.2l8.4-8.7l0,0c-1.2,0-2.1-0.9-2.1-2.1v-1.6c0-1.2,0.9-2.1,2.1-2.1h8.4
		c1.6,0,2.9,1.3,2.9,2.9v0c0,1.6-1.3,2.9-2.9,2.9h-1.5L190.3,37l11.8,12.6h1.3c1.6,0,2.9,1.3,2.9,2.9v0c0,1.6-1.3,2.9-2.9,2.9h-4.6
		l-14.5-15.8h-4.7v10l0,0c1.6,0,2.9,1.3,2.9,2.9v0c0,1.6-1.3,2.9-2.9,2.9h-9.3c-1.6,0-2.9-1.3-2.9-2.9v0c0-1.6,1.3-2.9,2.9-2.9h2.9
		V8.1h-3.1c-1.6,0-2.9-1.3-2.9-2.9v0C167.3,3.5,168.6,2.2,170.2,2.2z"/>
	<path class="st12" d="M236.8,2.2h8.2v47.4h2.3c1.6,0,2.9,1.3,2.9,2.9v0c0,1.6-1.3,2.9-2.9,2.9h-8.6v-2.9c-1.1,1.2-2.5,2.1-4,2.7
		c-1.5,0.6-3.2,1-5.1,1c-2.4,0-4.6-0.4-6.7-1.2c-2.1-0.8-3.9-2.1-5.4-3.7c-1.5-1.6-2.7-3.6-3.6-5.9c-0.9-2.3-1.3-5-1.3-8
		c0-2.7,0.4-5.2,1.2-7.5c0.8-2.2,2-4.2,3.5-5.7c1.5-1.6,3.3-2.8,5.4-3.7c2.1-0.9,4.5-1.3,7.1-1.3c1.7,0,3.3,0.2,4.7,0.6
		c1.4,0.4,2.8,1,4.1,2V8.1h-1.9c-1.6,0-2.9-1.3-2.9-2.9v0C233.8,3.5,235.2,2.2,236.8,2.2z M230.4,50.7c1.9,0,3.5-0.3,4.8-0.8
		c1.3-0.6,2.5-1.4,3.5-2.5V27.5c-1.1-1-2.5-1.7-3.9-2.1c-1.5-0.4-3-0.7-4.6-0.7c-1.5,0-2.9,0.3-4.2,0.8c-1.3,0.6-2.5,1.4-3.5,2.4
		c-1,1.1-1.8,2.4-2.3,3.9c-0.6,1.6-0.9,3.3-0.9,5.3c0,2.2,0.3,4.1,0.8,5.8c0.5,1.7,1.3,3.1,2.3,4.2c1,1.1,2.2,2,3.5,2.5
		C227.3,50.4,228.8,50.7,230.4,50.7z"/>
	<path class="st12" d="M257.3,37.7c0-2.8,0.5-5.4,1.4-7.7c0.9-2.3,2.1-4.3,3.7-5.9c1.6-1.7,3.4-2.9,5.6-3.8s4.6-1.3,7.2-1.3
		c2.6,0,5,0.4,7.2,1.3s4,2.2,5.6,3.8c1.6,1.6,2.8,3.6,3.6,5.9c0.9,2.3,1.3,4.9,1.3,7.7c0,2.8-0.4,5.3-1.3,7.6
		c-0.9,2.3-2.1,4.3-3.6,6c-1.6,1.7-3.4,3-5.6,3.9c-2.2,0.9-4.6,1.4-7.2,1.4c-2.7,0-5.1-0.5-7.3-1.4s-4-2.2-5.6-3.8
		c-1.6-1.7-2.8-3.6-3.6-5.9C257.7,43,257.3,40.5,257.3,37.7z M264,37.7c0,2,0.3,3.9,0.9,5.5c0.6,1.6,1.4,3,2.4,4.2
		c1,1.2,2.2,2,3.5,2.7c1.3,0.6,2.8,0.9,4.3,0.9c1.6,0,3-0.3,4.4-0.9c1.4-0.6,2.5-1.5,3.5-2.7c1-1.2,1.8-2.5,2.4-4.2
		c0.6-1.6,0.9-3.5,0.9-5.5c0-2.1-0.3-4-0.9-5.7c-0.6-1.7-1.4-3.1-2.3-4.2c-1-1.1-2.2-2-3.5-2.5c-1.4-0.6-2.8-0.9-4.4-0.9
		c-1.5,0-2.9,0.3-4.3,0.9c-1.3,0.6-2.5,1.4-3.5,2.5c-1,1.1-1.8,2.5-2.4,4.2C264.3,33.6,264,35.6,264,37.7z"/>
	<path class="st12" d="M301.3,20h6.6c0.9,0,1.6,0.7,1.6,1.6v2.6c0,0.9-0.7,1.6-1.6,1.6l0,0l6.2,22.6l7.7-26c0.4-1.5,1.8-2.5,3.4-2.5
		l0,0c1.6,0,3,1.1,3.4,2.6l7.4,25.9l6.5-22.6l0,0c-1.1,0-2.1-0.9-2.1-2.1V22c0-1.1,0.9-2.1,2.1-2.1h6.2c1.6,0,2.9,1.3,2.9,2.9v0
		c0,1.6-1.3,2.9-2.9,2.9h-0.1l-8.8,27.4c-0.5,1.6-2.1,2.7-3.8,2.7l0,0c-1.8,0-3.3-1.2-3.8-2.9L325,27.7l-7.2,25.4
		c-0.5,1.7-2,2.9-3.8,2.9h-0.1c-1.7,0-3.3-1.1-3.8-2.8l-8.8-27.4h-0.1c-1.6,0-2.9-1.3-2.9-2.9v0C298.3,21.3,299.6,20,301.3,20z"/>
	<path class="st12" d="M384.9,49.5h2.1V33.4c0-2.7-0.7-4.8-2.1-6.2c-1.4-1.4-3.4-2.1-5.9-2.1c-1.5,0-3,0.4-4.5,1.1
		c-1.5,0.7-2.9,1.6-4.3,2.6v20.8h2.1c1.6,0,2.9,1.3,2.9,2.9v0c0,1.6-1.3,2.9-2.9,2.9h-10.7c-1.6,0-2.9-1.3-2.9-2.9v0
		c0-1.6,1.3-2.9,2.9-2.9h2V25.9h-2c-1.6,0-2.9-1.3-2.9-2.9v0c0-1.6,1.3-2.9,2.9-2.9h8.4v4.2h0.1c0.8-0.7,1.6-1.3,2.4-1.9
		c0.9-0.6,1.8-1.1,2.7-1.5c0.9-0.4,1.9-0.8,2.9-1c1-0.3,2.1-0.4,3.2-0.4c1.9,0,3.6,0.3,5.1,0.8c1.5,0.5,2.8,1.3,3.9,2.4
		c1.1,1.1,1.9,2.4,2.5,4.1c0.6,1.7,0.9,3.7,0.9,5.9v17h2c1.6,0,2.9,1.3,2.9,2.9v0c0,1.6-1.3,2.9-2.9,2.9h-10.7
		c-1.6,0-2.9-1.3-2.9-2.9v0C381.9,50.9,383.2,49.5,384.9,49.5z"/>
	<path class="st12" d="M417.5,11.3L417.5,11.3c1.9,0,3.3,1.9,2.6,3.8L409,62.3c-0.4,1.1-1.4,1.8-2.6,1.8l0,0c-1.9,0-3.3-1.9-2.6-3.8
		l11.2-47.2C415.3,12,416.4,11.3,417.5,11.3z"/>
	<path class="st12" d="M450.4,41.3L428,52.5c-1.9,0.9-4.1-0.4-4.1-2.5v0c0-1.1,0.6-2.1,1.6-2.5l21.6-10l-21.6-10
		c-1-0.5-1.6-1.5-1.6-2.5v0c0-2.1,2.2-3.4,4.1-2.5l22.4,11.2c1.5,0.7,2.4,2.2,2.4,3.9v0C452.8,39,451.8,40.5,450.4,41.3z"/>
</g>
</svg>
