<?xml version="1.0" encoding="utf-8"?>
<!-- Generator: Adobe Illustrator 24.0.0, SVG Export Plug-In . SVG Version: 6.00 Build 0)  -->
<svg version="1.1" id="Capa_1" xmlns="http://www.w3.org/2000/svg" xmlns:xlink="http://www.w3.org/1999/xlink" x="0px" y="0px"
	 viewBox="0 0 62.1 61.9" style="enable-background:new 0 0 62.1 61.9;" xml:space="preserve">
<style type="text/css">
	.st0{fill:#FFFFFF;}
</style>
<g>
	<path class="st0" d="M62,32.3c-0.2,1.2-0.3,2.5-0.5,3.7c-0.7,4.6-2.5,8.8-5.2,12.7c-0.3,0.5-0.4,0.8-0.1,1.4
		c0.8,1.8,0.6,3.5-0.7,4.9c-1.3,1.5-3,2-4.9,1.3c-1.8-0.6-2.9-1.9-3.1-3.8c-0.4-3.4,2.8-5.9,6-4.8c0.2,0.1,0.3,0.1,0.6,0.2
		c0.8-1.3,1.7-2.7,2.4-4.1c2.2-4.2,3.3-8.8,3.1-13.5c-0.3-8.7-3.8-15.8-10.4-21.5c-2.8-2.3-5.9-4-9.3-5.1c-1-0.3-1.4-0.9-1.2-1.6
		c0.2-0.7,0.9-0.9,1.9-0.6c9.4,3.3,15.9,9.6,19.5,18.9c1,2.7,1.6,5.5,1.8,8.3c0,0.2,0.1,0.4,0.1,0.6C62,30.4,62,31.4,62,32.3z"/>
	<path class="st0" d="M2.5,30c0,13.3,7.8,24.1,19.5,28.1c0.3,0.1,0.6,0.2,0.8,0.3c0.6,0.3,0.8,0.9,0.6,1.4c-0.2,0.5-0.8,0.9-1.4,0.7
		c-1.3-0.4-2.6-0.9-3.8-1.4C10.5,55.4,5,49.6,2.1,41.6c-3.3-9.3-2.4-18.2,2.6-26.7c0.4-0.7,0.8-1.3,1.3-2c0.2-0.3,0.2-0.5,0-0.8
		C4.8,9.7,5.7,6.9,8.2,5.8c2.4-1.1,5.3,0.1,6.2,2.5c0.7,1.8,0.3,3.5-1.1,4.8c-1.3,1.3-2.9,1.6-4.7,1C8.2,14.1,8,14,7.8,14.4
		C4.3,19.4,2.5,24.9,2.5,30z"/>
	<path class="st0" d="M35.3,59.2c1.2-0.1,1.7,0.2,1.8,0.9c0.1,0.7-0.3,1.2-1.2,1.3c-0.7,0.1-1.3,0.2-2,0.3c-0.7,0.1-1.3-0.4-1.3-1
		c-0.1-0.7,0.3-1.2,1.1-1.3C34.2,59.4,34.9,59.3,35.3,59.2z"/>
	<path class="st0" d="M28.9,61.8c-0.7-0.1-1.5-0.1-2.2-0.3c-0.6-0.1-1-0.6-1-1.2c0-0.6,0.5-1.1,1.1-1c0.8,0,1.7,0.1,2.5,0.3
		c0.6,0.1,1,0.6,0.9,1.2C30.2,61.4,29.7,61.8,28.9,61.8z"/>
	<path class="st0" d="M35.2,2.6c-0.8-0.1-1.5-0.1-2.3-0.2c-0.7-0.1-1-0.6-1-1.2c0.1-0.6,0.5-1.1,1.2-1c0.8,0,1.6,0.1,2.4,0.3
		c0.6,0.1,1,0.7,0.9,1.3C36.4,2.3,35.9,2.6,35.2,2.6z"/>
	<path class="st0" d="M40.4,60.5c-0.6-0.1-1-0.4-1.2-0.9c-0.1-0.5,0-1,0.5-1.3c0.8-0.3,1.6-0.7,2.5-0.9c0.5-0.2,1.1,0.2,1.3,0.7
		c0.2,0.5,0.1,1-0.3,1.3C42.4,59.7,41.4,60.1,40.4,60.5z"/>
	<path class="st0" d="M26.3,2.7c-0.7,0-1.2-0.5-1.3-1.1c-0.1-0.6,0.3-1.1,1-1.2c0.8-0.1,1.5-0.2,2.3-0.3c0.7-0.1,1.2,0.4,1.2,1
		c0.1,0.6-0.3,1.1-1,1.3C27.9,2.5,27.1,2.6,26.3,2.7z"/>
	<path class="st0" d="M19.6,4.7c-0.6-0.1-0.9-0.4-1.1-0.9c-0.1-0.5-0.1-1,0.4-1.3c0.8-0.4,1.7-0.7,2.6-1c0.5-0.2,1,0.2,1.2,0.7
		c0.2,0.5,0.1,1-0.3,1.2C21.6,4,20.6,4.3,19.6,4.7z"/>
	<path class="st0" d="M31.7,50c-10.5,0-19-8.6-19-19c0-10.5,8.6-19,19-19c10.5,0,19,8.6,19,19C50.7,41.4,42.1,50,31.7,50z
		 M35.9,28.8c-0.1-1-0.2-2-0.3-3c-0.3-2.4-0.8-4.8-1.8-7c-0.4-0.8-0.9-1.6-1.5-2.3c-0.4-0.5-0.8-0.5-1.3,0c-0.6,0.8-1.2,1.6-1.6,2.5
		c-0.9,1.9-1.3,4-1.6,6c-0.2,1.2-0.3,2.5-0.4,3.7C30.3,28.8,33,28.8,35.9,28.8z M27.5,33.1c0.1,1,0.2,2,0.3,3c0.3,2.4,0.8,4.8,1.8,7
		c0.4,0.8,0.8,1.5,1.4,2.2c0.5,0.7,0.9,0.6,1.5,0c0.4-0.5,0.8-1.1,1.1-1.7c0.9-1.7,1.4-3.5,1.7-5.4c0.3-1.7,0.4-3.3,0.7-5.1
		C33,33.1,30.3,33.1,27.5,33.1z M25.5,17.5c-4.6,2-8,6.8-8.4,11.2c2,0,4.1,0,6.2,0C23.5,24.9,24,21.2,25.5,17.5z M38,17.6
		c0.5,1.8,1,3.6,1.4,5.5c0.4,1.9,0.5,3.8,0.8,5.7c2,0,4,0,6.1,0C45.8,24.2,42.4,19.5,38,17.6z M23.3,33.1c-2.1,0-4.1,0-6.2,0
		c0.1,4.1,5,10.6,8.4,11.2C24,40.7,23.5,36.9,23.3,33.1z M46.3,33.1c-2.1,0-4.1,0-6.1,0c-0.2,1.9-0.4,3.8-0.7,5.7
		c-0.4,1.9-0.9,3.7-1.4,5.5C42.2,42.5,45.8,37.8,46.3,33.1z"/>
</g>
</svg>
